/* XPM */
static char *_3cfb428812742b883d6cd502b8da0b5jDLSZAyaY4j3OUp4[] = {
/* columns rows colors chars-per-pixel */
"64 64 193 2 ",
"   c None",
".  c #292B2C",
"X  c #313234",
"o  c #36373C",
"O  c #755B3D",
"+  c #6D5437",
"@  c #373D45",
"#  c #3F4046",
"$  c #454546",
"%  c #53514F",
"&  c #464952",
"*  c #4A4E57",
"=  c #4B4F58",
"-  c #59595B",
";  c #7A6144",
":  c #64615E",
">  c #5C5E64",
",  c #575A62",
"<  c #5B6673",
"1  c #646262",
"2  c #6B6B6C",
"3  c #65666A",
"4  c #6C6E71",
"5  c #676A70",
"6  c #6F7070",
"7  c #747474",
"8  c #7B7B7C",
"9  c #75787E",
"0  c #955915",
"q  c #A65B03",
"w  c #B76606",
"e  c #926023",
"r  c #906839",
"t  c #A87232",
"y  c #B57A34",
"u  c #C7710D",
"i  c #D37507",
"p  c #DC7D0D",
"a  c #CA7A1A",
"s  c #D17D1A",
"d  c #D57C13",
"f  c #E37B02",
"g  c #CA7E24",
"h  c #857A6D",
"j  c #DD8115",
"k  c #D6811D",
"l  c #DB831C",
"z  c #E2810E",
"x  c #E8840F",
"c  c #E38619",
"v  c #E78717",
"b  c #D98625",
"n  c #DD8926",
"m  c #DA8B2D",
"M  c #D3852A",
"N  c #CB8A3E",
"B  c #DA8D32",
"V  c #D38C37",
"C  c #DF963F",
"Z  c #E28B26",
"A  c #E19438",
"S  c #A68258",
"D  c #B58C5B",
"F  c #BC905B",
"G  c #99856E",
"H  c #AB8961",
"J  c #B7946C",
"K  c #AA947B",
"L  c #CB8D46",
"P  c #CC914D",
"I  c #D59549",
"U  c #DA9A4E",
"Y  c #D49143",
"T  c #C79150",
"R  c #CF9B5E",
"E  c #D39752",
"W  c #DA9C55",
"Q  c #D39B58",
"!  c #E19E50",
"~  c #DDA25E",
"^  c #E0A157",
"/  c #C69B69",
"(  c #D5A165",
")  c #DDA86C",
"_  c #D3A36A",
"`  c #CCA77E",
"'  c #DDAE77",
"]  c #7D7E81",
"[  c #767E88",
"{  c #6B7887",
"}  c #7D8186",
"|  c #838383",
" . c #87898D",
".. c #8C8C8B",
"X. c #83868B",
"o. c #898C92",
"O. c #8F9091",
"+. c #8C939B",
"@. c #939394",
"#. c #9B9996",
"$. c #92969C",
"%. c #9B9B9C",
"&. c #A89A8A",
"*. c #A1A09F",
"=. c #B6A795",
"-. c #8E99A5",
";. c #959AA1",
":. c #9BA2AA",
">. c #A4A4A5",
",. c #AAA7A4",
"<. c #A6A9AC",
"1. c #ABAAAB",
"2. c #A8A7A7",
"3. c #B4AFAA",
"4. c #BCB2A8",
"5. c #A4AAB2",
"6. c #ABAFB4",
"7. c #AFB1B4",
"8. c #B2B3B4",
"9. c #B2B5BA",
"0. c #B6B8BA",
"q. c #BBBBBB",
"w. c #BAB8B7",
"e. c #CDAC87",
"r. c #D1AD83",
"t. c #CFB18D",
"y. c #D9B285",
"u. c #DDB688",
"i. c #DDB88B",
"p. c #C2AF99",
"a. c #D0B492",
"s. c #D4BD9F",
"d. c #DBB993",
"f. c #CCB8A3",
"g. c #C8B8A6",
"h. c #D3BFA7",
"j. c #D1C1AD",
"k. c #D9C9B6",
"l. c #E0C4A2",
"z. c #E8D4BD",
"x. c #BCBEC2",
"c. c #B4BAC2",
"v. c #ACB7C4",
"b. c #BDC1C5",
"n. c #BFC5CD",
"m. c #BAC5D2",
"M. c #C3C3C4",
"N. c #C4C6CA",
"B. c #C7C9CC",
"V. c #CDCDCD",
"C. c #C9C7C6",
"Z. c #D2CFCC",
"A. c #DED2C3",
"S. c #D4D2CF",
"D. c #D9D3CC",
"F. c #CDCFD2",
"G. c #C2CAD5",
"H. c #CED1D5",
"J. c #CBD2DB",
"K. c #D3D3D4",
"L. c #DCD9D5",
"P. c #D4D6D9",
"I. c #D7D9DB",
"U. c #DBDBDC",
"Y. c #E3D5C4",
"T. c #E4DACE",
"R. c #EBDDCB",
"E. c #E1DFDF",
"W. c #E1DBD5",
"Q. c #E3E1DE",
"!. c #E9E3DB",
"~. c #D4DAE2",
"^. c #DDDEE0",
"/. c #D8DFE8",
"(. c #DDE1E6",
"). c #DBE2EA",
"_. c #DBE9FB",
"`. c #E4E4E3",
"'. c #E9E8E7",
"]. c #E1E6EB",
"[. c #EBECEC",
"{. c #E7E8EA",
"}. c #F1F0EF",
"|. c #E4EBF3",
" X c #ECEEF1",
".X c #EDF2F5",
"XX c #ECF3FA",
"oX c #E7F4FC",
"OX c #F3F3F3",
"+X c #F2F6FA",
"@X c #F6FBFD",
"#X c #FCFDFD",
"$X c #F9F9F7",
/* pixels */
"                                                                                                                                ",
"                                                                                                                                ",
"                                                                                                                                ",
"                                                                                                                                ",
"                                                                                                                                ",
"                                                                                                                                ",
"                                                                                                                                ",
"                                                                                                                                ",
"                                                                                                                                ",
"                                                                                                                                ",
"                                                                                                                                ",
"                                                                                                                                ",
"                                                                                                                                ",
"                                                                                                                                ",
"                                                                                                                                ",
"                                                              %.2.8                                                             ",
"                                                          , 9 X.o.o.5 &                                                         ",
"                                                      4 > - & = * * > 3 4                                                       ",
"                                                    ;. X`.H.q.;.<.q.K.Q..XK.                                                    ",
"                                                    `.[.{.{.2.$  . .H.{.`.OXq.                                                  ",
"                                                  7.'.^.(.^.1 . o X 7.K.V.P.U.8                                                 ",
"                                                  B.U.K.H.F.>.- X 1 N.8 6 7.U.<.                                                ",
"                                                  B.J.9.q.w.P.B.8.M.H.$ . 6.J.7.                                                ",
"                                                -.p.P f.B.c.q.K.B.9.F.b.q.b./ H                                                 ",
"                                                < G q + 3.F V.I.w.0.N.b.b.:.t ;                                                 ",
"                                                  $ 1 % 1 O 8 | ] 7 7 2 2 7 5 @                                                 ",
"                                                    - @.@.$.@...O.@.O.@.%.7                                                     ",
"                                                    2 8  .O.#.%.#.$.%.%.@.| ]                                                   ",
"                                                r 8.N.G.G.n.b.m.G.N.M.M.M.B.b.7.                                                ",
"                                              S I _.V.r.Y B N P e.K./.P.I.I.I.).T e                                             ",
"                                            m.W =.g.k m ' y.d M s a g./.U.U.]./.V ` {                                           ",
"                                          G ~ D K p u..X#X!.M D.I.I i s.|.P.%.I.V u.;.                                          ",
"                                          g d.M.d s.@X@X`.K.`.$X<.6.U j D.(.1.I.N ( XX8                                         ",
"                                        &.W.oXR i I Y.q.| | %.`.'.<.D.j R ).(.J._ m .X2.                                        ",
"                                        J..XL.b N B &. .| 7 8 #..X+XoX~ k `.`.$.j.p k.9.%                                       ",
"                                        `.+Xk.s W.#X6.] h 3 7 | ].r.W N j A.+X[.XXI Z M.6.                                      ",
"                                      8.OX+Xk.s D.8.| ] 8 2 4 | [.j.n s j k.@XOX@XE.b Z k.                                      ",
"                                      M.OX@Xz.k &.4 8 7 3 1 7 V.OX7.).R j T.#X$X@X#X!.U p 0                                     ",
"                                      B.#X$X.Xb / } : O.N.9.L.K.6 7 U.B m .X#X@X$X$X#X@Xz.S                                     ",
"                                      y R.@X).' l ,.:.j.~ A..XO...|.r.f y.#X$X#X#X#X#X#X#X9.                                    ",
"                                      w Z k.b.`.b A K.I f a.[.[..Xt.z m }.#X#X#X#X#X#X#X$X*.                                    ",
"                                      #.C B L.J.R.l p s k f.L.j.Q z n R.#X#X#X#X#X#X#X#XOX                                      ",
"                                        A.p a.J.#X!.W c p c u w j E !.#X#X#X#X#X#X$X$X#XU.                                      ",
"                                        ~.~ U #XOX$X+XY.u.) _ e.Y.].[.[.K.OXOXOXOXOXOX$Xw.                                      ",
"                                        v.u.M |.}.[.}.+X+XXX+X+X+XOXU.V.| '.'.'.'.'. X^.                                        ",
"                                          F B (.'.'.`.`.`.`.E.'.w.>.U.K.Q.`.E.`.`.E.{.6.                                        ",
"                                            T ).U.U.U.U.U.U.I.E.q.2.L.C.^.~.~.~.~.(.g.                                          ",
"                                            h V.S.F.Z.V.V.V.V.V.K.S.H.x.4.` Q I E J                                             ",
"                                              X.w.x.q.q.q.q.w.q.0.c.=.Y f x Z A g                                               ",
"                                                  #.1.3.1.2.1.2.5.J z c ) =.q.b.                                                ",
"                                                    7 O.#.%.%.;.H x W 3.+.}                                                     ",
"                                                          7 ] h u L ;.[                                                         ",
"                                                                                                                                ",
"                                                                                                                                ",
"                                                                                                                                ",
"                                                                                                                                ",
"                                                                                                                                ",
"                                                                                                                                ",
"                                                                                                                                ",
"                                                                                                                                ",
"                                                                                                                                ",
"                                                                                                                                ",
"                                                                                                                                ",
"                                                                                                                                "
};
