/* XPM */
static char *e9e311f5a1134309e0e140e848367cc7O0o5JJxfrd9tsh2x[] = {
/* columns rows colors chars-per-pixel */
"64 64 15 1 ",
"  c black",
". c #070A06",
"X c #0F110E",
"o c #191B19",
"O c #262826",
"+ c #333533",
"@ c #424441",
"# c #4F514F",
"$ c #5F615E",
"% c #6D6F6C",
"& c #7E817E",
"* c #90928F",
"= c #9FA29E",
"- c #B1B3B0",
"; c #CDD0CC",
/* pixels */
"                                 .....                          ",
"                                   .X.                          ",
"                                   ...                          ",
"   XoX                 o+.          XX                          ",
"  X#$@                 +#o         X@+                          ",
"  o*=&                 XO.         o$#.                         ",
"  X#$@                  .          .Oo                          ",
"   ooX                                                          ",
"                                                                ",
"        .O@O                                     .O$@O          ",
"        X+#+                                     o$-*#          ",
"        .o+o                                     O%;-$          ",
"                                                 X@&%+          ",
"                                                  .Oo.          ",
"                                                                ",
"                                                                ",
"                                                                ",
"                                                       .oO.     ",
"  ..   XOo.                 oX                         o+#X     ",
"  XX.  o+O.                 +O.                        o+#X     ",
"  XX.  .X.        .     Xo. OOX                          .      ",
"                  oX   .o+X ..                                  ",
"      XX         .Oo.   .X                 X. .XX               ",
"     .@#X         X.                       X. o@#.              ",
"     .+#X                                     O##X              ",
"      oO.                                     o++.    ..        ",
"                       .oOX                           O+o       ",
"                       O$&@.                          +@o       ",
"                       +%=#X                        .@%%#X      ",
"                       X+#O                         o&-;*O.     ",
"                        .X.                         O=;;-@.     ",
"                                                    o&--*O.    X",
"                                                    .@$%#X     .",
"                                                       .        ",
"                                                                ",
"                      XoX         ..                            ",
"                    . @$@X       .OX                    .oo.    ",
"   .@#+             X $*%o       X+o                    o@#o    ",
"   O*-&X              O@O.        ..                    +%%+    ",
"   O=-&X              ...                               XO+X    ",
"   X$%@.                                                        ",
"                                                                ",
"                  X@@O                               O+O        ",
"                 .+**$                               O@+        ",
"   O+O           .+==$                               oOo        ",
"  .@$@            X##O                                          ",
"   O+O             XX.XX                  XOo                   ",
"   .X.               O@+.                X@&#.            Xo.   ",
"     ..              o++.                O%-&o           X@$+   ",
"     .X.             .oX                 X#&#X           X+#O   ",
"     ..                                    X.             .o.   ",
"                                                                ",
"                                             .OO                ",
"          XX.                 XX             o@@                ",
"         o##+                .O+.        .o. .OO                ",
"         +==%                 oo         O#O  ..                ",
"         O%%#                 ..         o+o        .XX         ",
"         .O+o          o+o.              .o.        ...         ",
"                       o+O.                                     ",
"                       XoX                                      ",
"                     ..                                         ",
"X                   .OO                                         ",
"O.                  X@@                                         ",
"o                    XX           ..                 ..         "
};
