/* XPM */
static char *_a8717c82d6649b0b424c0d8c5c628e7lOIcHacgU9mMhJ7Z[] = {
/* columns rows colors chars-per-pixel */
"64 64 23 1 ",
"  c None",
". c #FEEA00",
"X c #FFEA00",
"o c #FEEB00",
"O c #FFEB00",
"+ c #FEEA01",
"@ c #FEEB01",
"# c #FEEA02",
"$ c #FEEB02",
"% c #FEEA03",
"& c #FEEB03",
"* c #FEEA04",
"= c #FEEB04",
"- c #FEEA05",
"; c #FEEB05",
": c #FEEA06",
"> c #FEEB06",
", c #FEEA07",
"< c #FEEB07",
"1 c #FEEA08",
"2 c #FEEB08",
"3 c #FEEB09",
"4 c #FEEB0A",
/* pixels */
"                                                                ",
"                                                                ",
"                                                                ",
"                                                                ",
"                                                                ",
"                                                                ",
"                                                                ",
"                                                                ",
"                                                                ",
"                                                                ",
"                                                                ",
"                                                                ",
"                                                                ",
"                                                                ",
"                                                                ",
"                                                                ",
"                                                                ",
"                                                                ",
"                                                                ",
"          ;...................    ......    ;.........;         ",
"         .OOOOOOOOOO.OOOOOOO..   .OO..OO;   ...OOO.OOOO;        ",
"         .O..O........O..O....   .OO..O..   ;........OO.;       ",
"         .OOO.;33;33;3.OO.;33;   .OO;;OO.   ;..O.    .O.;       ",
"         .O.O.        3.O.      ;OO.  ...;  ;..O;    .O.;       ",
"          .O.O.       2...      ...;  ..O;  ;.OO.;.;;...        ",
"          2.O.O.      4.O.      .O.;  ;OO.  ;.OO.....O.;        ",
"           2.O.O.     2.O.     ;OO.   ;..O; .....OOO.;          ",
"            .O.O.     4.O.     .OOO........ ;....;...;          ",
"    ...........O.;    2.O.     .O.O.OOOO.O. ;.... ..OO......    ",
"    O...O...OO...2    2.O.    ;...;    ...O;;...;  .O.OOOOO.    ",
"    ............;     2.O.    ..O.2    .....;...;   ........    ",
"    .;;.;;.;.;;2      2.;;    ;..;      .;;.;..;;    ;.;.;;.    ",
"                                                                ",
"    ;..;   ;...   ...;  ;.;.;.;    ;.;.....;;     2......;;.    ",
"    ..O.   .OO.   ...;  ;.OO...    ..O..OOO...   ;..OOOO.OO.    ",
"    ;.O.; ;.O..; ;...;  ..O....;   ;.O.O.O....;  .....O.OOO.    ",
"     ..O. ;.O.O. 2...  ..OO;..O.   O.O.3   ;O..  .OOOO......    ",
"     .OO. ...OO. .OO.  ;OO. ;.O.   ;.O.     ...  ...O.          ",
"     ;OO.;..O..O;.OO.  .O.; ;.O.;  ;.O.;   ;.O.  ;...O.         ",
"      .OOOOOOOOO.OO.; ;OO.   .OO;  O.O.....OO.;   ;.OOO;        ",
"      ...OOO..O..OO.  .OO;   ;.O.  ;.OOOOOO..      ;.O.O.       ",
"      ;OOO.O;2O.O..;  .O.O223..O.  ..OO...O.        ;O.O.       ",
"      2.OOO.; ..OOO. ;.O......OOO. ;.O.;;.OO.;...;;...OO.;      ",
"       .O.O.  ...O.  ;....;.;.O.O. O...  ;.OOOOO..O.O....;      ",
"       .OOO.  ;OO..  ....     .OO.2..OO   ;...OOOOOO.OOO.       ",
"       2....   .... ;....     ;...;;...    ;............        ",
"                                                                ",
"                                                                ",
"                                                                ",
"                                                                ",
"                                                                ",
"                                                                ",
"                                                                ",
"                                                                ",
"                                                                ",
"                                                                ",
"                                                                ",
"                                                                ",
"                                                                ",
"                                                                ",
"                                                                ",
"                                                                ",
"                                                                ",
"                                                                "
};
