/* XPM */
static char *_be9a55452ec45f0d4acf0a5958b939dFPpRueJrSuFCpgp2[] = {
/* columns rows colors chars-per-pixel */
"64 64 236 2 ",
"   c None",
".  c #0D0D12",
"X  c #140D15",
"o  c #161313",
"O  c #1A1514",
"+  c #1B141B",
"@  c #1D1A1A",
"#  c #191718",
"$  c #100E0E",
"%  c #221D1C",
"&  c #24191B",
"*  c #25211E",
"=  c #29251D",
"-  c #343C1C",
";  c #32281A",
":  c #1E1722",
">  c #241C22",
",  c #281C26",
"<  c #262121",
"1  c #2A2424",
"2  c #2D2925",
"3  c #2E2A29",
"4  c #2C2429",
"5  c #3C2B24",
"6  c #332C2B",
"7  c #3A2C2C",
"8  c #322927",
"9  c #2E3524",
"0  c #34322D",
"q  c #3B332D",
"w  c #383B28",
"e  c #3D2E31",
"r  c #353231",
"t  c #3C3433",
"y  c #3E3935",
"u  c #3E3239",
"i  c #1C221D",
"p  c #432D24",
"a  c #45352A",
"s  c #422D32",
"d  c #423233",
"f  c #443A34",
"g  c #433C3B",
"h  c #473937",
"j  c #533933",
"k  c #533030",
"l  c #633931",
"z  c #5A341E",
"x  c #38471A",
"c  c #3D541A",
"v  c #3A422D",
"b  c #3E4930",
"n  c #43561C",
"m  c #404E1E",
"M  c #4C661D",
"N  c #52691E",
"B  c #58771E",
"V  c #475726",
"C  c #45413D",
"Z  c #4C423B",
"A  c #464A33",
"S  c #564439",
"D  c #4A5735",
"F  c #515233",
"G  c #654839",
"H  c #74492E",
"J  c #54653A",
"K  c #536D2B",
"L  c #6F3743",
"P  c #4A3E40",
"I  c #4B4543",
"U  c #4D4947",
"Y  c #544A43",
"T  c #534749",
"R  c #554B4B",
"E  c #5A4D4E",
"W  c #544844",
"Q  c #5A514A",
"!  c #5B4F51",
"~  c #5B5553",
"^  c #5A5755",
"/  c #67584B",
"(  c #645C56",
")  c #745145",
"_  c #5C6D42",
"`  c #597242",
"'  c #637B44",
"]  c #68625C",
"[  c #766757",
"{  c #7F604C",
"}  c #6D6864",
"|  c #746E69",
" . c #79736D",
".. c #7D7671",
"X. c #756F76",
"o. c #985A33",
"O. c #874F2D",
"+. c #A8673A",
"@. c #B86A38",
"#. c #BA703B",
"$. c #A95E32",
"%. c #CA763B",
"&. c #C7743B",
"*. c #D47B3D",
"=. c #C76F36",
"-. c #E87E3A",
";. c #87544E",
":. c #B5555B",
">. c #A85358",
",. c #89664C",
"<. c #9B7253",
"1. c #86735F",
"2. c #A97C5C",
"3. c #B2774C",
"4. c #BB5A64",
"5. c #857462",
"6. c #8B7865",
"7. c #917E6A",
"8. c #837D77",
"9. c #AF5F66",
"0. c #D57D41",
"q. c #CB7740",
"w. c #CA6D76",
"e. c #CD7575",
"r. c #CB7073",
"t. c #D15F78",
"y. c #5E831C",
"u. c #658A1C",
"i. c #6E971D",
"p. c #7DAC1B",
"a. c #78A419",
"s. c #698622",
"d. c #6F8A2F",
"f. c #7FAD25",
"g. c #698549",
"h. c #74914D",
"j. c #799851",
"k. c #738D4E",
"l. c #7EA153",
"z. c #85B32F",
"x. c #87A02B",
"c. c #DA803F",
"v. c #8BC31C",
"b. c #B3895A",
"n. c #85A857",
"m. c #92BB5E",
"M. c #8AAE56",
"N. c #95836D",
"B. c #8B847D",
"V. c #89827B",
"C. c #9D8873",
"Z. c #A28D74",
"A. c #A78F78",
"S. c #AB947B",
"D. c #A9947A",
"F. c #B1997E",
"G. c #B88764",
"H. c #93BB61",
"J. c #9F9644",
"K. c #D38852",
"L. c #CA936A",
"P. c #D1986E",
"I. c #D79D72",
"U. c #C48667",
"Y. c #E49D69",
"T. c #DAA173",
"R. c #E7A877",
"E. c #FCB47D",
"W. c #F9B57D",
"Q. c #F2A870",
"!. c #E3965E",
"~. c #95C352",
"^. c #9ECD63",
"/. c #98C462",
"(. c #9FD065",
"). c #A1CE66",
"_. c #A3D366",
"`. c #A5D569",
"'. c #A6D968",
"]. c #A9DA6A",
"[. c #AACC76",
"{. c #AEE26E",
"}. c #DE7382",
"|. c #8D8584",
" X c #948D85",
".X c #978F89",
"XX c #9B938B",
"oX c #999287",
"OX c #9F9891",
"+X c #AA9A89",
"@X c #B59D82",
"#X c #B59F86",
"$X c #A49C94",
"%X c #A89F98",
"&X c #BCA385",
"*X c #BEA689",
"=X c #B7A38A",
"-X c #ABA49B",
";X c #B6A796",
":X c #AEB787",
">X c #B3AAA1",
",X c #BDB4AA",
"<X c #BAB1A6",
"1X c #C1A789",
"2X c #C4AA8B",
"3X c #C9AE8E",
"4X c #C0A687",
"5X c #C3AC93",
"6X c #CCB394",
"7X c #D3B696",
"8X c #CBB18F",
"9X c #FFBC83",
"0X c #FDB780",
"qX c #C6B9A9",
"wX c #C6BDB2",
"eX c #C9BFB3",
"rX c #CFB7B1",
"tX c #DCC490",
"yX c #FFC185",
"uX c #FFC689",
"iX c #CCC2B5",
"pX c #CEC5B9",
"aX c #D1C6BA",
"sX c #D4CABE",
"dX c #D1C4B5",
"fX c #CFC0AE",
"gX c #D09DCA",
"hX c #D6CDC1",
"jX c #D9CEC2",
"kX c #DCD2C5",
"lX c #DED5C8",
"zX c #E1D6C9",
"xX c #E3D9CC",
"cX c #E1D5C6",
"vX c #EADED1",
"bX c #ECE1D3",
/* pixels */
"                                                                                                                                ",
"                                                                                                                                ",
"                                                                                                                                ",
"                                                                                                                                ",
"                                                O % 1 4 1 % @ # @ @ @ @ * 1                                                     ",
"                                          o < f Z Z q 2 2 3 y y C y t 3 @ # o O %                                               ",
"                                    + o q / ] S f U  .$X,XaXjXjXhXhXsXaXwX-X..Z * o @                                           ",
"                                  o t 5.5.Z g ..,XkXpX-XV.] Q U I I U ^ | .X<XsXwXB.y O O                                       ",
"                              O 1 5.C.Z g .XkXaX|.R 6 , 3 e u g g g g u 6 4 4 y } >XsX$XI X @                                   ",
"                            # Y =X[ 6 8.xXwX] 6 2 u W E E E E E E R ~ E E R R P e < C .XhX.X2 o                                 ",
"                        % % 5.*Xf I pXjX} 1 6 U E E E E R I g u r % e g e T E R E R g < d %XaX~ O                               ",
"                      @ 1 A.F.2 | vX$X0 2 T E R W I g 6 , 2 w A D D A 0 > 6 P E E R R E g % ( aXB.O &                           ",
"                    @ 8 @XA.=  XbX| > P E W h d d , > D h.m.^._.`.`._./.n.D 1 8 d R R U R R 6 r <X-X# %                         ",
"                  @ 3 @XS.1 XXxXR , R T d e d 7 > - n.].'._.^.^.^.^.^.^.'._.J J w 4 R R T R E g > $X-X@ %                       ",
"                % * D.&X2  XxXU 3 E h e e d 8 % M z.'._.^.^.^.^.^.^.^.^.)./.^.].^.A 4 R T T T R I & OX$XO                       ",
"                @ 6.6Xt  .bXR 3 T s e e e e & N v.a.M.l.m._.^.^.^.^.).^.^.).^./.`.^.0 u E T T T E I % -XB.o                     ",
"              O / 7X/ U bX} 4 W 7 e e s e > N z.a.u.K n.H.^.^.^.(.(.).^.^.^.^.^./.'.h.> R E R R T E P < ,X( X                   ",
"            & 0 2XZ.3 pXXX* h s e s e s , m a.a.f.n.^.`._.^.^.^.(.).).^.^.^.^.`.'.^.^.0 > e g U R R ! g g wX0                   ",
"            @ 6.6Xd V.hX3 u e e e e d 6 = i.a.a.~.`.^.^.^.^.^.^.^.(.^.^.^.).^.j.j.(.'.h.: A r 4 4 4 4 h % ~ 8.X                 ",
"          O g 7X5.I bX( 2 h d d d e 7 : N p.a.f.^.^.^.(.`._.^.^.(.^.^.^.^.^.b X + J ).`.D ` /.h.g.g.' > D ' 4 J w               ",
"          * Z.6Xt | |.+ , , , , , > ; M p.a.a.z.(.(.(.^.l.M.`.^.^.^.^./.].d.X.^ o % n.`.M.< r t f A A @ n.n.' {.` + +           ",
"        @ 8 / t 1 x x M N N N N B u.a.z.a.a.a.z.).(./.b : > ' _.^.^.(.(.'.' T I o > ` /.`.A k t.4.& p q g.A J ].' A k.y 2 =     ",
"      + * w n y.s.s.B N V x - x c n M s.a.a.a.z.^.'.` |.] o > M.(.(.(.M.`.H.% . 9 l.[.[.].` X ) L a K.z ` {.j._.j.0 k.m._.` +   ",
"% w c M s.u.B V a k l L L L l k > + + - p.p.a.a./.].D 4 4 # o k.'.^.J r ' `.M.J m.qXgXgX[.b ) 0 % #.%.@.* ` ).].l.k 4.H.M.8     ",
"> V v.s.A ) ;.4.w.4.:.4.:.4.4.4.>.p + 2 y.u.i.a.z.`.h.D D w 2 M.'./.j./.m.^.`._.[.rXrX:X` > G.) p %.!.Q.3.; i D v ) tXk.*       ",
"  & V x.w.}.w.w.w.w.4.:.:.>.:.:.>.7 1 p p - ; 9 x M K g.g.g.k././.l.'./.^.^.(.'.`.m._ i h L.uXb.% K.9X9X9XR.) # . 0 D o         ",
"    & n x.U.w.w.r.w.e.r.w.w.4.w.5 G &.q.&.&.+.o.H G Q G W j a 9 D v J j.`.`.m.k.b i s b.9X9XE.R.% G.9XE.E.0X9XT.,.q +           ",
"      : - s.b.e.w.}.w.e.e.e.}.>.5 0.&.@.&.&.c.c.0.E.yXyX9X0X0XP.7 X y ` D 9 i % G G.E.yX0XE.E.9Xj ,.9XE.E.E.9XR.uXG.@           ",
"      q [ 3 c s.J.U.e.e.U.U.b.F l *.@.+.&.&.+.@.K.0XE.E.E.E.0XR.a f s a S { 2.R.9X9XE.R.E.E.E.yX,.0 9XE.E.E.E.I.9XG.@           ",
"    # h 7XN., r x N s.s.d.B c * $.c.%.&.%.%.#.=.Y.0XE.E.E.E.9X2.S 9XE.9X9XyXyXE.E.E.9XI.R.E.W.yX<.. ,.E.E.E.E.R.9Xb.#           ",
"    o Z 6X5.^ wX1 > > * ; , , > H o.#.%.+.&.%.&.Q.9XE.E.E.E.9XS 2.9XE.E.E.E.E.E.E.E.E.E.E.W.E.yXG . p Y.9XE.9XR.W.S >           ",
"    o Y tX5.( kX6 q d e d 8 > a G a ; H #.&.&.&.Y.E.E.E.E.9XL.5 W.0XE.E.E.E.E.E.E.W.R.E.E.I.R.R.2 G 5 0.R.T.I.I.S ! (           ",
"    @ q ] f 0 $X6 e e s 1 ; <.K.K.K.b.a a %.&.=.!.9XE.E.W.9Xh <.9XW.E.E.E.E.E.E.E.E.T.E.E.W.E.j z *.5 O.+.a % > + 8.}           ",
"    @ 2 y @ Q 2 1 s d 8 5 <.G o # & G K.5 H c.=.K.E.E.W.yX,.a 9XW.W.E.E.E.E.E.E.W.W.E.E.9XW.G ; &.-.O.5 -.=.5 t t R y $ o @ %   ",
"    @ N.7XS } V.o 4 8 > 5 2 o J d.M o G 3.5 K.%.%.Q.9XyX<.0 R.9XE.9X9X9XyXE.9XyXW.yXyXyXL.f 5 @.@.$.O.& z ; o @ < 3 C ] 8.-X^ o ",
"    f *X2XA.8 -Xr 0 q 1 2 n - m.B n 9 * H = O.o.o.+.P.{ @ G.R.I.I.I.P.L.L.U.G.2.<.,.{ S $ $ ; & % 1 0 h Q } V.$X<XpXkXhXjXbX8.$ ",
"    Q 3XN.3Xd B.( [ 8X5.* - = x 6 E Y Z t q 3 4 = < > @ % ; % = * * * * * = 1 8 r I U ^ ..B.XX-X>XwXpXsXcXxXlXlXkXsXhXOXwXxX .$ ",
"  o [ N.C.Z.Q ] 8.Z 8X@XR / / 0 S.8X2X2X4X*X2X=X=X#X=X#X+X+X+X+X+X+X=X;X;XqXdXdXsXsXpXiX,X>X-XXXpXkXhXsXsXaXsXsXsXhXeX XsXzX( $ ",
"  % Z C.6.Z.5.R .Xf 2X*X2X2X2X&X1X@X&X&X&XiXjXjXjXjXjXjXjXkXkXkXcXkXlXkXxX-XQ Q I C C y y C U b ( lXaXsXsXsXsXsXaXcX$X%XkXhXf   ",
"  $ Q C.5.7X6.I XXd 2X#X&X&X&X&X&X&X&X&X*XaXhXsXsXhXaXhXsXsXsXsXsXsXaXaXlX] Q ]  .....-X.X-XxX<XU jXsXsXsXsXsXsXsXiXoXaXvXoXO   ",
"    f C.&X3X5.U XXf 4X&X&X&X&X&X&X&X&XF.6XsXsXsXsXsXsXsXsXsXsXsXsXsXsXaXxX} [ =XlXsX<XhX,X-X,XV.g hXsXaXsXsXhXhXlXjXkXzX>X6     ",
"    3 =X&X3X[ ^ B.Z 7X3X2X*X2X&X&X&X&X&X5XsXsXsXaXsXsXaXaXsXsXaXsXaXsXaXkXV.8 Q R U I C C I R R XXxXzXxXlXlXsXwX-X X| Q * O     ",
"    @ 6.3X2XS ..| = [ [ 6.N.A.@X&X*X2X2X8XlXxXzXzXzXcXcXzXzXzXzXzXzXzXzXxXlX-X$X-X<XwXiXpXpXiXiX<X$XB.| ~ C 6 1 < 0 6 #         ",
"      q &XD.6 -Xt O o $ @ = < 1 3 q t Z Z ] | ..8.B. X X.XoXoXoXoXoX XB.B.8.8... .] ~ I g r 2 < > 2 0 C Q | B.%X,XlX( #         ",
"      @ q 3 0 R # @ q  .A.S.N.5.1.[ / Q Y f f q 0 2 2 2 2 3 3 3 3 8 6 0 r r y C I Q ^ | ..B.OX-X,XiXsXkXxXxXlXkXxX-X@           ",
"            * # O A &X3X*X2XF.F.8X3X3X3X3X3X3X4X2X5XqXfXpXpXpXpXpXpXsXsXhXjXkXkXlXxXxXlXxXxXlXkXkXhXhXsXaXsXsXsXkXI O           ",
"              * O N.8XF.F.2XF.Z.&X&X&X&X&X&X&X*XdXhXjXkXjXsXkXsXhXhXhXsXhXsXsXsXsXsXaXsXpXpXsXsXsXsXsXsXsXsXsXxXV.o             ",
"              * * Z.2X&X&X4XF.Z.*X&X&X&X&X*X&X*XsXsXsXsXsXsXsXsXhXsXsXsXsXsXsXsXsXsXsXiXaX-XkXpXsXsXsXsXsXsXkX>X*               ",
"                O Y 2X&X&X&X&XZ.&X&X&X&X&X&X&X&XqXsXsXsXsXsXsXsXhXsXsXsXsXsXsXjXsXsXlX-X>X.X..-XsXsXsXhXaXjXpXy O               ",
"                  @ [ 8X&X&X*XZ.F.4X&X&X*X&X&X&X&XdXkXsXhXsXsXjXsXhXsXjXhXhXsXsXsXsXpX$X^ .. .<XiXhXsXsXhXkXU O                 ",
"                    @ 5.2X&X&XF.A.4X&X&X&X&X&X&X&X2XsXsXsXsXsXsXsXjXsXsXsXsXhXsXsXsXaXwX$X| }  XsXsXaXhXkX^ o                   ",
"                      % 6.3X&X*XC.&X&X&X4XF.&X&X&X&X5XsXhXsXsXsXsXsXhXsXsXjXsXsXsXhXaX-XXX...X,XkXpXkXhXQ o                     ",
"                        @ [ 3X*XS.Z.4X&XF.[ C.3X&X&X&X5XsXhXsXsXsXsXsXsXhXsXsXhXsXhXsXsXlXiXwXpXsXcXeXI o                       ",
"                          O R &X3XC.F.4X1X1.Q @X4X&X&X&X2XdXhXsXsXhXsXsXsXsXhXsXsXsXsXsXsXsXsXhXxX$X6 O                         ",
"                            O 0 7.4XZ.@X&X3X7.Q A.&X&X&X&X&XqXsXjXhXsXsXsXsXsXsXsXsXsXsXaXsXzXaX} @ @                           ",
"                              @ % Z N.Z.&X4X4XC.F.&X*X&X&X&X&X5XeXsXjXjXhXsXsXsXsXsXaXkXxXsX X0 O                               ",
"                                  O * g ] A.2X3X2X&X&X&X&X&X&X&X&X2XqXrXdXhXhXhXkXlXlXpX|.y O @                                 ",
"                                      O % = Y 5.S.&X2X3X2X2X4X2X4X&X&X2X8X7XfXqX6XXX} 3 O O                                     ",
"                                            O @ 1 y Y [ 5.N.Z.D.F.F.S.A.N.1./ Z 2 O o                                           ",
"                                                    o O # @ * 1 1 2 2 > @ O O O                                                 ",
"                                                                                                                                ",
"                                                                                                                                ",
"                                                                                                                                ",
"                                                                                                                                "
};
