/* XPM */
static char *_d1eebf9efa5489b8875dc94d37c1ed7SK5lpvSNzQlyygt2[] = {
/* columns rows colors chars-per-pixel */
"64 64 183 2 ",
"   c None",
".  c #010101",
"X  c #0D0B03",
"o  c #0C0C0C",
"O  c #141305",
"+  c #1D1C0B",
"@  c #15140B",
"#  c #131313",
"$  c #1C1C1B",
"%  c #171819",
"&  c #271010",
"*  c #23200C",
"=  c #20201F",
"-  c #2B2912",
";  c #312E14",
":  c #322F1A",
">  c #3C381A",
",  c #1F2423",
"<  c #1F2827",
"1  c #242524",
"2  c #292926",
"3  c #2C2C2B",
"4  c #312D2C",
"5  c #302E22",
"6  c #3A3724",
"7  c #31312E",
"8  c #3E3C2C",
"9  c #2E2F35",
"0  c #2D3232",
"q  c #343433",
"w  c #3A3532",
"e  c #373837",
"r  c #393936",
"t  c #333B3A",
"y  c #3C3C3B",
"u  c #35353C",
"i  c #461C1A",
"p  c #79110F",
"a  c #781C1C",
"s  c #6A1209",
"d  c #423E1B",
"f  c #413B17",
"g  c #54341A",
"h  c #772613",
"j  c #413F2B",
"k  c #433A37",
"l  c #4E3132",
"z  c #692524",
"x  c #6A3837",
"c  c #793937",
"v  c #762B2A",
"b  c #3B433C",
"n  c #46421E",
"m  c #4A451C",
"M  c #514C1F",
"N  c #45422B",
"B  c #494629",
"V  c #494625",
"C  c #514C23",
"Z  c #514D2B",
"A  c #5A5424",
"S  c #565129",
"D  c #5B552A",
"F  c #585828",
"G  c #424134",
"H  c #41413F",
"J  c #4F4C34",
"K  c #524F35",
"L  c #5E5935",
"P  c #545136",
"I  c #635D2D",
"U  c #645E26",
"Y  c #615C32",
"T  c #6A632B",
"R  c #726A2D",
"E  c #7D752F",
"W  c #656033",
"Q  c #6E693A",
"!  c #666134",
"~  c #756E34",
"^  c #736D3B",
"/  c #7B7433",
"(  c #7F7838",
")  c #3D3E42",
"_  c #3C4243",
"`  c #444443",
"'  c #494946",
"]  c #454549",
"[  c #47484A",
"{  c #4C4C4B",
"}  c #484847",
"|  c #564B4A",
" . c #4D504E",
".. c #51514F",
"X. c #4B4C51",
"o. c #475552",
"O. c #545453",
"+. c #595957",
"@. c #555C5A",
"#. c #5B5B5A",
"$. c #5A5656",
"%. c #554558",
"&. c #724644",
"*. c #725959",
"=. c #416C5F",
"-. c #60605F",
";. c #636363",
":. c #6A6A6A",
">. c #6B666D",
",. c #6F6F70",
"<. c #737373",
"1. c #7D7D7C",
"2. c #7A7672",
"3. c #6C7474",
"4. c #911E1D",
"5. c #8C1615",
"6. c #98302F",
"7. c #A93939",
"8. c #B23A3A",
"9. c #B6403F",
"0. c #837B3A",
"q. c #817A37",
"w. c #C7552C",
"e. c #974343",
"r. c #B34241",
"t. c #8E6360",
"y. c #A67E7D",
"u. c #D84845",
"i. c #C14B50",
"p. c #D85A59",
"a. c #E84141",
"s. c #EC4C4C",
"d. c #E05C5B",
"f. c #CA6565",
"g. c #D76565",
"h. c #DD7275",
"j. c #E16C6C",
"k. c #E47A75",
"l. c #5B8341",
"z. c #63A84B",
"x. c #8C8337",
"c. c #8C843C",
"v. c #948B3D",
"b. c #898245",
"n. c #9A9249",
"m. c #9A9353",
"M. c #A49B46",
"N. c #B5AC52",
"B. c #B4AB52",
"V. c #C5BA57",
"C. c #DB8279",
"Z. c #D3C85E",
"A. c #3E668B",
"S. c #3B7FAC",
"D. c #5F7B8E",
"F. c #437EAE",
"G. c #E57F80",
"H. c #7C8484",
"J. c #8B8C8C",
"K. c #878788",
"L. c #978F8E",
"P. c #A9A9A9",
"I. c #B3B3B2",
"U. c #E58383",
"Y. c #EF8888",
"T. c #ED9998",
"R. c #F49E9A",
"E. c #EEA39E",
"W. c #EEACAD",
"Q. c #F6AAAA",
"!. c #F8B9B9",
"~. c #F4BFC1",
"^. c #C2C2C2",
"/. c #DDDCDC",
"(. c #E7CFCF",
"). c #F4C3C3",
"_. c #F7D3D4",
"`. c #FCD4D3",
"'. c #FBDADA",
"]. c #FDECEC",
"[. c #FEF1F1",
"{. c #FFFEFE",
"}. c #F9FAFA",
/* pixels */
"                                                                                                                                ",
"                                                              M.                                                                ",
"                                                          N.L 6 Z n.                                                            ",
"                                                    V.x.W 6 e [ ` 5 Z R M.                                                      ",
"                                                  / > q [ ] { { { ) [ e : U                                                     ",
"                                              N.Z 1 { +.#.] ] { { ` +.#.#.q d B.                                                ",
"                                              V 9 #.$...O.} } { { ` O.{ 1.I.X.> N.                                              ",
"                                            D 9 O.O.O.O.+.} } [ { k O.{ 1.^.I.) C                                               ",
"                                          0.4  .O.O.O.O.O.} } X.[ _ O.O.#.P.^.K.3 /                                             ",
"                                          B ` O.O.O.O.O.$.] } { { ` O.O. .2.^.I.` N                                             ",
"                                        q.w { O.O.O.O.O.O.{ ` { { ` O.O.O...K.L.#.q (                                           ",
"                                        S _ O.O.........O.] } { { ` O.O.....' :.1.t D                                           ",
"                                        N { ` H y k ` ` { H } { { y { H y y y H ' ` N                                           ",
"                                      x.k ` e ` { { ' b _ y } { [ q y ` { { { ' r H G x.                                        ",
"                                      ~ q H O.+.O.....{ { 3 ` [ { q } { { ....+.O.` 7 ^                                         ",
"                                      W 2 +...{ ' ` H 7 # o # y $ o # 1 ` H ' { O.#.3 I                                         ",
"                                      D y O.{ ` y q q ` 1 . . y o . % ) ) 2 3 y ' O.] F               a.a.                      ",
"                                      B X.' q 7 q q e y [ y o y o 3 { y w e e 1 2 } O.8 n.          U.Q.s.                      ",
"                                    / r { q 1 q q 4 9 q e e ) k e k e q q 9 q e 3 y { H T         h.[.'.d.                      ",
"                                    D ` q 1 q q 9 q q q e 3 3 #.q 2 q 9 q q q q ) 2 e X.N       p.'.[.k.                        ",
"                                    N ` # $ H q q 9 q q ) { O.#.[ ) y q q 9 q q H = $ O.r E   u.).{.U.                          ",
"                                    8 ` . q { ` y y ` { $.#.-.#.;.O.{ ` y e e y { q o { b F   W.{.T.                            ",
"                                  E r q # { #.#.+.#.#.;.:.-.{ e #.;.;.#.O.O.X.#.{ { # y [ h R.{.W.                              ",
"                                  ^ y q $ { :.<.:.:.,.<.;.O.y _ ` #.:.<.<.:.:.<.;...$ 0 c k.}.).u.                              ",
"                                  ^ y q 1 O.{ ....{ ;.:.#.) k } ) { ;.:.:.#.#.;.....1 i g.}.`.p.                                ",
"                                  ^ y y $ +... .O.O.{ #.} y ] } ` y O.;.} { { { ..@.& 8.].].j.                                  ",
"                                  c.r { o q +.+.O.O.O.{ e ` ` ` ` } y #.O.O.#.+.#.w 4.`.{.C.                                    ",
"                                    Z y $ . 6 r H ) O.` ` ` y ) y y e } O._ { k 2 p !.{.C.w.                                    ",
"                                      Z # M V.* 0 ` ` ' q 2 y { ] q 1 3 ' y ' e s R.{.E.w.                                      ",
"                                          Z.T ) #.....` 3 1 y $.{ 2 3 H y ..@.c G.{.~.u.                                        ",
"                                          q.q #.O.O.y ' { 1 2 e q 1 q $.' t x g.{._.w.                                          ",
"                                          j O.O...7 ` #.y y ` k b b q ..@.l r.[.[.i.g                                           ",
"                                        ~ y +.O.3 0 ..#.e 3.t.7.l.z.9 O.| 7.'.{.g.x _ R                                         ",
"                                        Z { +.q 2 2 k O.q <.>.%.o.=.e X.7.!.{.G.z @.[ C                                         ",
"                                        b O.k y } 1 { e 1 2.D.S.A.F.1 a Q.{.T.a t ` +.j                                         ",
"                                      q.j ..q { q q -.y 2 ] [ ) _ J 5.U.{.W.6.3 ` y X.j                                         ",
"                                      W ) ` ` ` 2 H +.e q 2 2 ` z p.R.{.`.9.w q y { e H T                                       ",
"                                      Y y y { } q q -.q y y t x Y.].}.[.p.&.b q 2 ) $ y Y                                       ",
"                                      S u } { { y 1 b 7 w k 4 r.(.}.}.`.r.| e 3 1 3 o 1 Y                                       ",
"                                      Z # b O.k 2 e 3 = ` H.y.f.1./.{.R.v H.} e 3 e # # I                                       ",
"                                      n . o } q 3 e 3 2 3  .K.*.J./.Q.7.O.P.#.#.7 1 . . F                                       ",
"                                      f . . X 1 r 9 9 q e 3 1 t | f.e.k b J.' q 3 $ . . D                                       ",
"                                      n . X . # 3 1 q q u y 3 K.$.l [ e 4 ..H = 2 1 . . A                                       ",
"                                      > . . . 1 q 1 1 y y y 1 <.O.0 q y e H r 7 9 1 X . f                                       ",
"                                      - . . o q q r = 1 9 1 O.$.3 y r q y H 3 e q & . . :                                       ",
"                                      - . . % q q r 3 O.} <.<.y r r q q ' 3 q y t 3 . . *                                       ",
"                                      + . . 1 7 q 7 } K.$.{ q q q q r ` 7 q 7 r 0 7 . . +                                       ",
"                                    x.X . . 3 q y 7 q ` 3 3 y b y y ` q q y 7 r q q o . X 0.                                    ",
"                                    R . . . 7 7 q 2 3 2 7 3 q 3 3 r 7 3 7 3 2 7 q q # . . Q                                     ",
"                                    D . . . 3 7 3 H ' ` 7 7 y o . 7 q 3 y ` y 7 3 q o . . U                                     ",
"                                    m . . . $ 3 H +.O.+.{ q 2 . . $ 7 ` O.+.+.` 3 2 . . . m                                     ",
"                                    - . . . . = { +.O.O.{ 3 . . . . 2 { O.O.O.{ 1 X . . . ;                                     ",
"                                    O . . . . o q ' ..' y # . . . . o y { ..{ y # . . . . +                                     ",
"                                  ~ . . . . . # y r q q q o . . . . X q q e q r % . . . . X b.                                  ",
"                                  m . . . . . % { O.O...y X . . . . . q { ..O.{ $ . . . . . T                                   ",
"                                  * . . . . . # r b ` { 4 . . . . . . 2 ..' H y % . . . . . n                                   ",
"                                ~ . . . . . . 2 ..O.r q 2 . . . . . . 1 r q { ..3 . . . . . O M.                                ",
"                                m . . . . . 1 ' O.O.} ` # . . . . . . o H } O.O.' 2 . . . . . F                                 ",
"                                  W d : ; O ` } O.O.` O.# X O O O O O o ..H O.O.H ` & > > C !                                   ",
"                                          W ` { H ` ' O.j v.        M.V O.{ ` ` ' [ W                                           ",
"                                          Z ) O.' ' O.{ 8             N ] O.' } O.) n                                           ",
"                                          Q q ) ` ] ) y B             Z y ] ] ] ) e D                                           ",
"                                            b.L J K P ! m.            m.L K K J P ^                                             ",
"                                                                                                                                "
};
