/* XPM */
static char *_198ef44a1d14092cab1e122703a2402cHVyLip4xnUWgxzH[] = {
/* columns rows colors chars-per-pixel */
"64 64 223 2 ",
"   c None",
".  c #04030F",
"X  c #08040F",
"o  c #060414",
"O  c #090316",
"+  c #070318",
"@  c #0C041B",
"#  c #0B091D",
"$  c #12061E",
"%  c #15081E",
"&  c #18091D",
"*  c #0E0621",
"=  c #0F0B20",
"-  c #150621",
";  c #190725",
":  c #160922",
">  c #190824",
",  c #1B072A",
"<  c #140C2A",
"1  c #1C092B",
"2  c #15052A",
"3  c #1D122C",
"4  c #171226",
"5  c #1E0B31",
"6  c #1E0734",
"7  c #1F123A",
"8  c #210A2D",
"9  c #21132D",
"0  c #240D33",
"q  c #290D36",
"w  c #230E39",
"e  c #2B0F3D",
"r  c #231533",
"t  c #251835",
"y  c #25123B",
"u  c #2C123B",
"i  c #2C1A3C",
"p  c #281637",
"a  c #32133E",
"s  c #300E3D",
"d  c #241443",
"f  c #2E1542",
"g  c #2F1B42",
"h  c #2B1148",
"j  c #261648",
"k  c #321643",
"l  c #391445",
"z  c #331C45",
"x  c #3C1549",
"c  c #341D4B",
"v  c #3A1C4C",
"b  c #361848",
"n  c #361D53",
"m  c #3C1D52",
"M  c #3B1E5A",
"N  c #371E5A",
"B  c #332046",
"V  c #36214A",
"C  c #3A214E",
"Z  c #3C2254",
"A  c #3D225A",
"S  c #362058",
"D  c #3E1D62",
"F  c #3F2461",
"G  c #43144C",
"H  c #43194E",
"J  c #4B1454",
"K  c #421C55",
"L  c #4E155A",
"P  c #431E5C",
"I  c #4B1C5C",
"U  c #481A54",
"Y  c #53135B",
"T  c #53175C",
"R  c #412355",
"E  c #43235C",
"W  c #4D215E",
"Q  c #44285D",
"!  c #421E63",
"~  c #4D1E63",
"^  c #5C1464",
"/  c #521D63",
"(  c #5E1D6B",
")  c #571763",
"_  c #621C6F",
"`  c #63136B",
"'  c #691872",
"]  c #741A7A",
"[  c #452463",
"{  c #4A2363",
"}  c #492964",
"|  c #46256A",
" . c #4D256A",
".. c #4B2A6C",
"X. c #462865",
"o. c #522165",
"O. c #51256C",
"+. c #512A6E",
"@. c #52306E",
"#. c #4E2D72",
"$. c #5C2572",
"%. c #532C74",
"&. c #5B2D74",
"*. c #532D7B",
"=. c #4E3072",
"-. c #523374",
";. c #5C3275",
":. c #55327A",
">. c #5B337A",
",. c #5E387F",
"<. c #61216E",
"1. c #6A2B7C",
"2. c #662676",
"3. c #64327D",
"4. c #61387D",
"5. c #72217C",
"6. c #582F83",
"7. c #5D328A",
"8. c #5A3785",
"9. c #7D2585",
"0. c #633C82",
"q. c #6B3A85",
"w. c #623C8B",
"e. c #6A3A86",
"r. c #783789",
"t. c #643A93",
"y. c #5E4082",
"u. c #6B448C",
"i. c #69458B",
"p. c #74448D",
"a. c #72498E",
"s. c #6D4693",
"d. c #6E459A",
"f. c #724B94",
"g. c #75479A",
"h. c #755395",
"j. c #79559A",
"k. c #754AA6",
"l. c #7041A5",
"z. c #7F55A0",
"x. c #85288C",
"c. c #82338C",
"v. c #8B3995",
"b. c #943398",
"n. c #952C95",
"m. c #9B3EA2",
"M. c #864898",
"N. c #83539C",
"B. c #87589F",
"V. c #90419B",
"C. c #9946A2",
"Z. c #835CA1",
"A. c #8959A7",
"S. c #9B5FAA",
"D. c #9456A4",
"F. c #8657B6",
"G. c #A647AA",
"H. c #B75DBC",
"J. c #A94EB2",
"K. c #8563A4",
"L. c #8D62A6",
"P. c #8E69AB",
"I. c #9465AD",
"U. c #9A63AD",
"Y. c #906BAC",
"T. c #9372AF",
"R. c #9868B7",
"E. c #9674B4",
"W. c #9B76B6",
"Q. c #9E7AB9",
"!. c #A76CB6",
"~. c #B269BC",
"^. c #A471B5",
"/. c #A375B9",
"(. c #AB74BC",
"). c #A37CBC",
"_. c #AB79BE",
"`. c #B271BE",
"'. c #BA5DC1",
"]. c #8F60C1",
"[. c #9569C1",
"{. c #BC6AC3",
"}. c #BB66C4",
"|. c #A97DC6",
" X c #B37CC4",
".X c #B77AC6",
"XX c #C056C5",
"oX c #C36CCA",
"OX c #C27CCD",
"+X c #CB74D2",
"@X c #D776D9",
"#X c #D16BD5",
"$X c #E67FE3",
"%X c #A483C1",
"&X c #AB83C4",
"*X c #AD8AC6",
"=X c #AF86CC",
"-X c #B382C4",
";X c #BB84CB",
":X c #B28CCA",
">X c #BA8BCD",
",X c #B589C8",
"<X c #B491CC",
"1X c #AC82D4",
"2X c #AF81D9",
"3X c #B488D9",
"4X c #BC92D2",
"5X c #BE9AD4",
"6X c #C285CE",
"7X c #C69CDC",
"8X c #C38BD1",
"9X c #C9A3DE",
"0X c #DD81E1",
"qX c #E588E7",
"wX c #E895EE",
"eX c #F099F2",
"rX c #D9B4ED",
"tX c #DAB6EB",
"yX c #DFBDF2",
"uX c #EFA0F0",
"iX c #E3BFF2",
"pX c #EBC9F8",
"aX c #F6D6FE",
/* pixels */
"                                                                                                                                ",
"                                                                                                                                ",
"                                                                                                                                ",
"                                                                                                                                ",
"                                                      n Z A A A F A A A Z c                                                     ",
"                                              Z A F =.y.h.Z.Y.E.E.T.P.K.h.i.%.[ n                                               ",
"                                      r V Z X.:.j.W.*X:X:X%XQ.W.E.W.).).*X:X*X).B.>.P m                                         ",
"                                  r g Q #.s.W.<X<XE.j.i.:.#...X.X.|  ...%.0.f.L.&X>X_.a.{ m                                     ",
"                              4 t Z *.k.*X9X).h.:.| X.E Z Z V z z c v Z Z R E { +.e.U.>X-Xa.P                                   ",
"                            3 z | l.1XrX=Xs...X.A v i p r 8 1 1 1 1 1 1 0 q u b R E  .3.A.6X^.&.                                ",
"                            B *.[.iXtXF.*.X.Z f p 1 > > : : : > > - 5 C , ; ; 1 0 u v E  .3.^.;Xp.P                             ",
"                          C 0.2XaX9Xd.#.Z k q 1 ; > > 1 , : : : % % 1 b , % ; ; ; , 5 u v W O.M.6XA.~                           ",
"                        Z 7.3XaX2Xt.{ v q 8 > ; : : : E *.6 % - $ % $ $ % $ - - ; ; ; , 8 a K { q.;XU./ C                       ",
"                      Z 6.|.yXR.6.R k 1 , > : - : $ - A -.< $ $ $ $ $ $ $ % - - - % ; > > 8 u H T 2..XS.I v                     ",
"                    B #.A.rXz.#.Z u 1 , & : - - - $ $ - - $ @ @ $ @ - $ $ - @ - % % $ - > > , 0 x W 2..XD.I z                   ",
"                  i Q d.9XN. .M u > : : % % - % $ - @ @ $ @ @ @ @ @ @ @ @ $ $ @ $ % u 1 % & > 1 q x W 1.6XM.P g                 ",
"                r Z :.>XI. .E u > : 1 : : - $ $ @ @ @ * @ @ @ @ @ - 0 , * @ @ @ @ - g 1 % % : : 1 0 G W c.OX1.K                 ",
"                z [ Y.|.%.Q a 1 % 0 Z ; $ $ # @ @ @ @ @ @ + + # o w d.D @ @ @ @ @ @ @ $ $ - : : > , q H T D.`./ v               ",
"              t A i.8Xq.{ z 8 > : ; 1 : - $ $ @ @ @ @ @ + + + + o @ c 5 + + + @ @ @ @ $ $ $ - : > > 8 u U $.~.V.K i             ",
"              V { ).Y. .m 0 ; > : - $ @ @ @ @ @ @ , , - + + o + o o o o o + o @ @ @ @ @ @ $ @ - - > > 8 l T r.{._ G             ",
"              Z p.>X3.E u 1 > - @ $ - @ @ @ @ + @ @.w.2 o + o o o o O + + + o o o + # @ @ @ $ - - : > > q H ( H.C.L a           ",
"            z [ W.I.{ c 8 > > ; 0 1 $ @ @ + + + o y n * o o * < o O O o o o @ + o o o + @ @ @ $ $ - - ; 8 a L c.oX2.v           ",
"            m 4.>Xq.E u , > - 0 d.[ - : # + + + o o o o + o = < o + o o o @ @ $ # o o o O @ @ @ $ - - ; , q H ` oXC.L           ",
"          i Z B._.O.K 8 > > % 1 c 7 @ @ @ o + + o o o o + . . o o o o O o > b e $ o o + O @ @ $ 1 - % - ; 8 l Y J.oX' a         ",
"          z { _.B.[ k , : - $ $ @ @ @ @ O O o + o O o O o o . . o o o o o 1 s.| @ o o o o @ @ w 6.y $ - & , u J v.@Xx.G         ",
"          c >..Xq.E u ; : - $ # @ @ @ o o o + + o o O o o o o . o o o o o o 5 > O o o O O o @ 1 N 5 $ - & > 8 G 9.qXJ.J         ",
"          n u..X&.m 0 - : $ $ @ @ @ + o o o o X o o o o o o o o o o o o o o o o o O o O o O O @ @ @ $ - - ; 8 l ' qX+X`         ",
"        p m A.(. .v 1 - $ - $ * @ @ @ o o o o d y o o o o . o o o # - o o o o o o O o o o o o O @ @ @ - % % 1 a ` #XwX'         ",
"        i P I.S.I k , & % $ @ @ @ o @ o + o o d d o . o o o o o o j S + o o o o o o o o O o + O @ @ @ - % - ; q Y XXeXx.        ",
"        g ! ^.D.E a ; $ @ $ @ @ + o o O o o o O + o o o o o o o . + * o o o # + o . o o o o o O + @ @ @ $ - : q Y G.eXn.k       ",
"        g E ^.M.K u ; k b ; @ @ + o o o o o o o o o o o . . o . . . . . o . = # o o o o o o o O + @ @ - $ % & 0 J n.qXn.l       ",
"        z { (.M.P u - @.7.2 @ @ @ o o o o o o o o o o o . o o . . o . o . o o o o o o o o @ 2 ; @ @ @ @ $ % : 8 G 9.@Xx.l       ",
"        a ' #Xm.J u % 1 , @ @ @ @ o o o o o O o . o . o . o o . o . . o . o o . o o o o o 1 u.! @ + @ * $ $ - 0 K 1. X3.z       ",
"        s ] @XG.Y e > $ $ $ @ @ O O o o : m e O o o + o o . o o . o o . o o o o o o o o o @ Z d @ @ @ @ $ % % 0 v 3._.;.V       ",
"        u ] $XH.Y s : - - $ @ @ @ o o o 0 d.X.O o # 4 o . o o . = 2 - o . o o o o . o o o o o o + @ @ $ $ % : q K q..X&.b 4     ",
"        r ` qX@X` a , - - $ $ * @ O + o o 1 : + o o o o o o o o X.i.6 o o o o o < 5 O o + o o @ @ @ @ $ $ % ; e R p..XO.c 4     ",
"        r ^ @XwX] a 8 - % - @ @ @ o o O . . o o o o o . o o o o y A < o o o . o y S * o o o O O @ @ @ - % - , u E M.(.{ z =     ",
"        9 J '.eXx.G 8 ; % $ $ @ @ O O o + o + o o o o o o o o o o . o o o o o o @ @ o o O O O @ @ @ @ $ - - 1 b { U.U.A i       ",
"          G b.wXn.J q 8 : : $ - 5 , @ O o + o o o o o o o o o o o o . o o o o o o o o o o O O @ @ @ * $ : : 0 v O.(.N.Z t       ",
"          l 5.0XG.Y s ; : : $ , 6.N @ O + + o o + o o o o o o o o o . o o o o o o + + o O @ @ @ @ @ - - : > q Z 3.;X0.Z 3       ",
"          a ^ }.~.` l 8 & ; % > j 0 @ @ @ o o o o * : - o o O o o o o . + o o o O o + o u -.e @ @ - - - : 8 a ! j. X .c 4       ",
"          9 J b.+X5.J u ; ; - - $ @ @ @ @ o O o o k s.h O o o o o + # . o o o O o + @ o y w.h @ $ % % & ; 8 m  .(.A.Z i         ",
"            k _ oXv.T a 8 ; & - $ @ @ @ @ + o o o 1 X.w + o o O o < < o o o o o o + + + @ * @ @ - % & ; > u Q e.>X0.m r         ",
"            p J b.~._ U q ; ; - - $ $ @ @ @ + @ + o o o o + O o o o + + @ o o o @ + + @ @ @ * - - - > ; 0 V  .U./.[ z           ",
"            9 x _ ~.v.T l 8 > > - - $ # @ @ @ @ O @ o + + o o o o o o + + o > n w @ @ @ @ - - $ - - ; 1 f Q 0.>Xi.Z t           ",
"              i H v.`._ I u 1 > : : : $ $ @ @ @ @ @ + o + o O o o o + + + + p d.M @ @ @ @ - $ $ - ; ; p R O.!.W.{ B 4           ",
"                b / ~.D.T H q , : : : $ $ $ @ @ @ @ @ + @ @ + + @ o + @ @ @ @ 5 , @ $ @ * $ z u % > 0 v  .a.<X,.M r             ",
"                p H 1.OXr.o.x 0 > > : : % - 5 - @ @ @ @ @ @ @ @ @ @ @ + + # @ @ @ @ $ - - % w 0 - 8 k { >.>XZ.X.z               ",
"                  k P M..X2.I x q , > & & - V 1 $ @ # $ @ @ @ @ @ @ @ @ * @ @ @ $ $ % - : : - : 1 k Q %.&X_.%.C 3               ",
"                  4 v I S..X$.W l 0 , & & ; - - $ $ $ $ $ $ $ @ - @ $ @ $ @ $ $ $ % - - & > : 8 k Q *._.7Xw.A t                 ",
"                    3 C / !.`.<.W b q 1 > ; : % % - $ $ $ $ $ % $ $ @ : f f : $ - - : > > > r k { 7.&XrXk...g                   ",
"                      r M / !. X2.o.v a 8 ; > ; - : - % $ $ $ $ $ - $ - *.w.1 - : : : , , u v ..l.7XpXF.#.c                     ",
"                      % r C O.U.6Xr.~ E b q 8 , ; > > % : 8 1 % $ : - % q u 1 : : , 1 0 g E *.F.yXaX]...B                       ",
"                        % t Z { B.8XD.+.{ Z k q 1 > > > - R f - : : > : : > : > 1 w k Z X.7.R.pXyXk.} g                         ",
"                          : r C W q.-X-Xp.O.W K v u q 8 , 1 1 1 > > > 1 1 1 8 p c Z X...f.4XyX1Xt.[ i                           ",
"                              3 z R O.B.>X_.g.%.{ E R v b u f u u u u i z C Z [ X.#.u.).9X3Xk.*.M p                             ",
"                                  t C P ;.L.;X,XI.u.>...} X.Q A A E A X.X...:.i.K.*X5X%Xg.-.A g 3                               ",
"                                      i v M %.h./.:X,X).Y.z.h.f.i.f.h.j.P.Q.*X<X*XK.y...A B p                                   ",
"                                            c m [ :.a.K.W.%X:X<X<X<X<X*X%XT.h.y...A Z B t                                       ",
"                                                i c C A F  .=.-.-.-.-.=.X.A S S B i 9                                           ",
"                                                    3 r i z B c c V B B g t r                                                   ",
"                                                                                                                                ",
"                                                                                                                                ",
"                                                                                                                                "
};
