/* XPM */
static char *_831aa21dba84f7cb78a6678a33d1995nToNorX8lNB8KqiY[] = {
/* columns rows colors chars-per-pixel */
"64 64 198 2 ",
"   c None",
".  c #04040F",
"X  c #060414",
"o  c #080316",
"O  c #070418",
"+  c #0C041B",
"@  c #0B091C",
"#  c #12061E",
"$  c #120A1E",
"%  c #18091F",
"&  c #18061F",
"*  c #0D0721",
"=  c #0D0920",
"-  c #140721",
";  c #190724",
":  c #160822",
">  c #190824",
",  c #1B0729",
"<  c #130A2A",
"1  c #1D0A2B",
"2  c #161122",
"3  c #1C132B",
"4  c #191326",
"5  c #1D0D36",
"6  c #210B2E",
"7  c #21162D",
"8  c #240D32",
"9  c #2A0C36",
"0  c #230E3B",
"q  c #2A0F39",
"w  c #320F3D",
"e  c #31043F",
"r  c #241434",
"t  c #281136",
"y  c #251934",
"u  c #26133B",
"i  c #2B143B",
"p  c #2B1A3C",
"a  c #281A39",
"s  c #32123D",
"d  c #390945",
"f  c #2D1542",
"g  c #2D1A40",
"h  c #2C164B",
"j  c #261447",
"k  c #321543",
"l  c #391044",
"z  c #321A45",
"x  c #311649",
"c  c #3C154B",
"v  c #341B4B",
"b  c #3B1A4C",
"n  c #3B1652",
"m  c #371C51",
"M  c #3B1D53",
"N  c #3F1F58",
"B  c #3B2156",
"V  c #3D215B",
"C  c #3E2168",
"Z  c #440E4D",
"A  c #41154D",
"S  c #490F54",
"D  c #520F5A",
"F  c #451452",
"G  c #401B54",
"H  c #431E5B",
"J  c #4A1C5C",
"K  c #4E175B",
"L  c #51165B",
"P  c #43215D",
"I  c #471F60",
"U  c #521B61",
"Y  c #5F1968",
"T  c #581966",
"R  c #63156C",
"E  c #661C6F",
"W  c #442563",
"Q  c #4A2364",
"!  c #462A65",
"~  c #44236B",
"^  c #4D256A",
"/  c #4A2A6C",
"(  c #52256B",
")  c #532B6E",
"_  c #582269",
"`  c #4D2974",
"'  c #542F76",
"]  c #582F7F",
"[  c #592978",
"{  c #503172",
"}  c #5A3476",
"|  c #5D3379",
" . c #5B397D",
".. c #53307B",
"X. c #672A77",
"o. c #76217E",
"O. c #633C7E",
"+. c #5E3489",
"@. c #5B3682",
"#. c #7B2F87",
"$. c #653B81",
"%. c #6A3A83",
"&. c #613A8C",
"*. c #7E348B",
"=. c #7A3284",
"-. c #663B92",
";. c #5F4081",
":. c #644184",
">. c #6C4386",
",. c #6D448B",
"<. c #6A498A",
"1. c #674689",
"2. c #72448C",
"3. c #79438F",
"4. c #6D4199",
"5. c #784791",
"6. c #724D91",
"7. c #7D4C94",
"8. c #754799",
"9. c #745295",
"0. c #785796",
"q. c #7C5698",
"w. c #7E5B9E",
"e. c #7E53AA",
"r. c #82338B",
"t. c #8B3391",
"y. c #853D92",
"u. c #844F9B",
"i. c #864695",
"p. c #85549B",
"a. c #8D509F",
"s. c #855A9F",
"d. c #805296",
"f. c #8E4AA0",
"g. c #8B53A2",
"h. c #825DA3",
"j. c #8C5BA3",
"k. c #9353A4",
"l. c #955BAA",
"z. c #9D5CAD",
"x. c #925DA7",
"c. c #865CB2",
"v. c #A54BAA",
"b. c #A546AC",
"n. c #A453AF",
"m. c #A94FB1",
"M. c #B74DBA",
"N. c #A751B0",
"B. c #AB54B3",
"V. c #A45BB2",
"C. c #B255BA",
"Z. c #B75DBF",
"A. c #BE5CBF",
"S. c #BB55BC",
"D. c #8F60A6",
"F. c #8D69AD",
"G. c #8A63A7",
"H. c #9362AF",
"J. c #9368AF",
"K. c #8F65B5",
"L. c #9F63B2",
"P. c #956DB3",
"I. c #9F6CB5",
"U. c #9E6EB8",
"Y. c #9672B5",
"T. c #9A73B7",
"R. c #9C74BA",
"E. c #9E79BB",
"W. c #A665B6",
"Q. c #A36BB9",
"!. c #A768B8",
"~. c #B265BE",
"^. c #A473BC",
"/. c #A379BE",
"(. c #AD75BF",
"). c #B85EC1",
"_. c #9B71C4",
"`. c #AE75C1",
"'. c #A37CC2",
"]. c #AA7DC4",
"[. c #AC7FC9",
"{. c #C35DC3",
"}. c #C95AC7",
"|. c #D574DA",
" X c #D373D5",
".X c #B185CE",
"XX c #B38ACD",
"oX c #BE93DB",
"OX c #C69AE5",
"+X c #E887ED",
"@X c #ED89F1",
"#X c #CDA4E9",
"$X c #CCA5E7",
"%X c #DCB7EE",
"&X c #D6ACF2",
"*X c #DFB7F8",
"=X c #DCB6F2",
"-X c #E3C0F4",
/* pixels */
"                                                                                                                                ",
"                                                                                                                                ",
"                                                                                                                                ",
"                                                                                                                                ",
"                                                                                                                                ",
"                                                                                                                                ",
"                                                                                                                                ",
"                                                                                                                                ",
"                                                                                                                                ",
"                                                        m V ! ! ! W V x                                                         ",
"                                              g v ! ;.0.F.Y.E.E.E.E.Y.F.q.$.N f                                                 ",
"                                          p V  .G.E./.Y.e.9.1.:.:.1.6.h.J.^.^.h.' x                                             ",
"                                      r M &.'.XXP.<.{ W B m v z x x v M H ' %.L.(.D.)                                           ",
"                                    p ` _.#X'.@.C v z r 8 , > 1 1 1 6 6 t s M H | x.(.5.n                                       ",
"                                  z -.$X=Xe.Q m i 6 > : - : : : & t k : > : 6 i v H %.!.x.I                                     ",
"                                B 4.*X#X-.N p 6 > > # 5 Q 8 # - # & : # : > ; ; 6 s G _ z.L.^                                   ",
"                              v &.$X.X..b 8 , > : : # , / 5 # # # - + - - # & > : ; 8 b K k.W.J p                               ",
"                            p ` .XT.Q z 6 : # : # - # # + + + + + + # # # # # : ; : > 6 v K k.L.H a                             ",
"                          y V H.^.^ v 6 : : % & # # + + + + + + + + + + + @ # u 1 # % > 8 c U V.a.G                             ",
"                          v :.].' b 8 # i u + # # + + + + + + + + + + + + + + * # # & > : 6 b E ~.X.k                           ",
"                        a W /.5.N t ; : > : - + + + + + O O O X O O O X X + + + # # : : : ; 9 A =.B.J r                         ",
"                        z 6.Q.Q k , : - - + + + + + X + O X X X X X X O + X + + + + + - ; ; , s L N.r.l                         ",
"                      y Q ^.2.b 6 > : - * + + + O X X X X O * + X X O X X X X O + + + # # : : 6 A #.C.L                         ",
"                      p :.Q.^ s > : - # * + + O X X X X X X * + X X X X X X X X X + + + + ; ; , s T Z.r.s                       ",
"                      v j.s.M 8 : - # + + + X O O X o X X X . . X X X X X X X X X o + 1 h : - - 6 Z v.C.S                       ",
"                      Q !.%.x , : & - + + + X X O X X o X X X X X o X X X X o X o o o 0 C # - : 1 l t.|.E                       ",
"                    u } !.( f > : # + + + o X X X o X X X X X X . X X X X X X X X X o + # # # : ; w o.+Xt.                      ",
"                    f >.L.P q : # - + + + o X . < h o X X X X X X X X X X X X o O o X X + + # # > 6 R +XB.                      ",
"                    f 7.l.G 8 # # + + + X X X X + < X X X . X . X X X X X O X X o X X o + + + # : 6 D  X{.e                     ",
"                    x d.g.b 6 # # # + O X X o X X . X X X . X . . . X . = @ . X X X X o + + # & & 1 Z S.}.d                     ",
"                    x a.f.c 6 & # + + + o o X X X X X X X . X . . X X . X X X X X o X o O + + # & 1 A b.N.c                     ",
"                    Z M.b.Z 1 # # + + + X X o X X X X X . X . X . X . . X X X X X o X X O + + # # 1 b u.p.x                     ",
"                    d {.A.S 1 & # - + o o X o X X X @ + . X X X . X . X X X . X X o X X + + + & # 1 b g.p.x 2                   ",
"                    d {.|.D 6 : - + + + + X X o X X X X X . X X X X X X . X 5 + X X X + + + + & & 8 G l.7.f $                   ",
"                    9 v.@XR 8 > - # + + X X o X X X X X X X X X X X . X X O j < . X X + + + # # : q Q L.>.f                     ",
"                    6 r.+Xo.w ; : # # > + X X X X X X X X X X X X X X X X X . . X X X + + + # : ; f ) !.} a                     ",
"                      Y  Xt.d 1 : # - ~ u o + X X X X O X X X X X X X X X X O O O X + + + + & : , x %.Q.P r                     ",
"                      Z C.v.F 9 ; - > 0 > + o X X X X X X o X o X . X o X X O X O O + + # # : % q G j.j.x 4                     ",
"                      s *.).T k , ; - # + + + X X X X X X X X X + < X X o X X X O + + + # : : , k ^ ^.O.g                       ",
"                      r L B.r.c 8 : : - # + + + X X X O X X o X + + X X X X X O + + + # : : > 6 M 5.^.N y                       ",
"                        k =.B.L l ; : : : # + + X + o X X O X X X X O X X + + + + + # # : : , z ^ ^.,.z                         ",
"                        y F n.i.F q , : : - # # + + + + + O X X O O O O + + + + + # 1 1 : > i H d.R.W a                         ",
"                          g X.).X.F 8 ; # : # : < + + + + + + O O + + + + + + # + # 8 u # t N | ]. .g                           ",
"                          3 b *.W.T b 8 > & # 1 u # + + + + + + + + + + + + # # & & < : 6 M ^ ].h.N y                           ",
"                            y G k.z.U b 8 > : : - & # # + # # + + + + # - # & - : # > 8 b ` '.]./ p                             ",
"                              p P V.z.U A i , > ; : - # - # # # # # 0 ' 1 # : : > 1 u M +.oXOX@.z                               ",
"                              $ p P z.W.[ G k 6 , ; : > : > ; & : # 6 N 5 # > , 6 z P 8.%X&X+.v                                 ",
"                                % p G u.(.3.Q M p 8 ; > : k 8 : : > : # : , 8 g M ` K.-XoX] p                                   ",
"                                    p M O.^.W.%.Q N z i 8 1 5 1 1 1 r y p x B ! ,..X#Xc.~ p                                     ",
"                                      7 z Q q.^.I.7.} Q H m b v v m m V /  .0./.XXK...v 7                                       ",
"                                          r z Q 2.P./.R.F.w.9.9.9.9.w.F.R..XT.9.` B a                                           ",
"                                                f M ) >.w.F.Y.T.T.Y.F.w.1./ V x a                                               ",
"                                                    r u f m B V V B B z g i r                                                   ",
"                                                                3 4 2                                                           ",
"                                                                                                                                ",
"                                                                                                                                ",
"                                                                                                                                ",
"                                                                                                                                ",
"                                                                                                                                ",
"                                                                                                                                ",
"                                                                                                                                ",
"                                                                                                                                ",
"                                                                                                                                ",
"                                                                                                                                "
};
