/* XPM */
static char *_249a3db43ee4505ff7ac06644977b4aD8Oui8cybJ0nF2zs[] = {
/* columns rows colors chars-per-pixel */
"85 64 228 2 ",
"   c None",
".  c #0E0A09",
"X  c #0A0809",
"o  c #120D0C",
"O  c #140E12",
"+  c #130815",
"@  c #151213",
"#  c #1A1515",
"$  c #1D1A1A",
"%  c #1B1619",
"&  c #0E0D11",
"*  c #221D1C",
"=  c #261A1E",
"-  c #25231E",
";  c #28291B",
":  c #35251E",
">  c #2C3519",
",  c #2D3717",
"<  c #261C24",
"1  c #301F2C",
"2  c #272221",
"3  c #2B2524",
"4  c #2D232A",
"5  c #2D2B27",
"6  c #332A24",
"7  c #3B2D25",
"8  c #34232D",
"9  c #342D2B",
"0  c #38292D",
"q  c #2D3324",
"w  c #36322C",
"e  c #3B332E",
"r  c #363727",
"t  c #3B2C32",
"y  c #352A30",
"u  c #3C3433",
"i  c #3E3835",
"p  c #3C3637",
"a  c #1E2712",
"s  c #4E2D1C",
"d  c #483528",
"f  c #563725",
"g  c #402F31",
"h  c #433334",
"j  c #433B34",
"k  c #4C3D33",
"l  c #433D3A",
"z  c #46393B",
"x  c #4F3334",
"c  c #623D27",
"v  c #67373D",
"b  c #39471B",
"n  c #3F511A",
"m  c #3B442C",
"M  c #3E5330",
"N  c #414D1E",
"B  c #445A1A",
"V  c #496419",
"C  c #57751A",
"Z  c #526F17",
"A  c #5C412E",
"S  c #45403D",
"D  c #4B423C",
"F  c #494435",
"G  c #54473A",
"H  c #4C5B35",
"J  c #4C532E",
"K  c #654C3A",
"L  c #754B2F",
"P  c #536339",
"I  c #576B3A",
"U  c #526B36",
"Y  c #60773C",
"T  c #4A3D41",
"R  c #453D41",
"E  c #6F3944",
"W  c #4B4542",
"Q  c #4D4945",
"!  c #544A44",
"~  c #564B4C",
"^  c #594C4E",
"/  c #544747",
"(  c #5E5145",
")  c #56534C",
"_  c #594E51",
"`  c #5C5552",
"'  c #5D5856",
"]  c #4C5040",
"[  c #66584B",
"{  c #7A5A45",
"}  c #635C56",
"|  c #645E59",
" . c #6D5E50",
".. c #5B7143",
"X. c #667C43",
"o. c #69635E",
"O. c #6A6057",
"+. c #776759",
"@. c #7F6148",
"#. c #6D6762",
"$. c #736D67",
"%. c #7A736D",
"&. c #76716B",
"*. c #7D7873",
"=. c #90532E",
"-. c #A25D34",
";. c #AA6536",
":. c #B76A37",
">. c #BD713A",
",. c #8A603C",
"<. c #C9763B",
"1. c #D67C3C",
"2. c #863D4E",
"3. c #815C47",
"4. c #8D4950",
"5. c #BB585D",
"6. c #86644B",
"7. c #85725E",
"8. c #9B6F50",
"9. c #A37856",
"0. c #A56C46",
"q. c #B15763",
"w. c #8B7864",
"e. c #917D68",
"r. c #847D75",
"t. c #BD6B69",
"y. c #C76C73",
"u. c #D36E7E",
"i. c #D27578",
"p. c #C86B6F",
"a. c #CC6E54",
"s. c #65861B",
"d. c #7AA819",
"f. c #7CA822",
"g. c #73993F",
"h. c #688444",
"j. c #718A4A",
"k. c #77984C",
"l. c #7C9C51",
"z. c #7EA34D",
"x. c #81B119",
"c. c #908D3A",
"v. c #91C433",
"b. c #8D8C4A",
"n. c #B68659",
"m. c #AC8E4F",
"M. c #85AB55",
"N. c #85A857",
"B. c #8BB258",
"V. c #92BC5D",
"C. c #97836C",
"Z. c #8A837B",
"A. c #998874",
"S. c #A38E75",
"D. c #AB947A",
"F. c #A79177",
"G. c #B1997D",
"H. c #B88863",
"J. c #94B465",
"K. c #DB8244",
"L. c #DC8E57",
"P. c #D89C6D",
"I. c #D1926C",
"U. c #E69C68",
"Y. c #DBA073",
"T. c #E2A373",
"R. c #E9A876",
"E. c #F3AD79",
"W. c #F4B27D",
"Q. c #FCB47D",
"!. c #FFB87F",
"~. c #F3A56D",
"^. c #97C45E",
"/. c #98CA53",
"(. c #9ECC63",
"). c #98C461",
"_. c #A2D366",
"`. c #A8DA6A",
"'. c #A7CB71",
"]. c #AFE46C",
"[. c #E57B85",
"{. c #958E85",
"}. c #988F88",
"|. c #9B938A",
" X c #98928A",
".X c #8B8681",
"XX c #A89A89",
"oX c #B69E82",
"OX c #B99F81",
"+X c #A39B92",
"@X c #AC9F90",
"#X c #BCA385",
"$X c #BCA489",
"%X c #AAA095",
"&X c #ACA49A",
"*X c #B1A99F",
"=X c #B5A797",
"-X c #ABB587",
";X c #B4ACA2",
":X c #B9AEA7",
">X c #BBB3A8",
",X c #C4AA8B",
"<X c #C9AE8E",
"1X c #C1A789",
"2X c #CDB291",
"3X c #C6B29B",
"4X c #C6AE93",
"5X c #FFBB82",
"6X c #FCB780",
"7X c #C6B9AA",
"8X c #C7BDB3",
"9X c #FFC286",
"0X c #FFC588",
"qX c #CEC5B9",
"wX c #CBC1B5",
"eX c #D1C7BB",
"rX c #D4CABE",
"tX c #D7C6B3",
"yX c #E2C5A0",
"uX c #DCB0CE",
"iX c #D6CCC1",
"pX c #D9CEC2",
"aX c #DCD2C5",
"sX c #DFD4C8",
"dX c #E1D6C9",
"fX c #E4DACC",
"gX c #EADED1",
"hX c #ECE1D3",
/* pixels */
"                                                                                                                                                                          ",
"                                                                                                                                                                          ",
"                                                                                                                                                                          ",
"                                                                                                                                                                          ",
"                                                                                                                                                                          ",
"                                                                                                                                                                          ",
"                                                                                                                                                                          ",
"                                                                                                                                                                          ",
"                                                                                                                                                                          ",
"                                                                                                                                                                          ",
"                                                                      $ 5 6 2 $ @ @ @ @ @ o o #                                                                           ",
"                                                                  3 j k e i ~ $.Z. X+X|.{.r.| l * o @                                                                     ",
"                                                              2 ( [ D }  X>X>X+XZ.%.$.$.&.Z.|.;X;XZ.S # o                                                                 ",
"                                                          # ! 7.G | ;X>Xr./ 9 9 9 u u z u y 0 9 W %.*X+XW O                                                               ",
"                                                        2 w.+.S %X7Xo.9 9 T ^ ` ` ^ ~ T ~ ^ ~ ^ T t 9 ' &X{.3 o                                                           ",
"                                                    O e D.( ' eXr.5 u ~ ^ ~ T t 4 5 w q 6 < 4 / _ _ ~ z 5 $.:XW o                                                         ",
"                                                  @ j #XF *.eXW 9 ~ / z h < q I k.B.^.^.V.z.P 5 8 T ~ ~ ~ 9 i *X| o                                                       ",
"                                                @ i ,XF Z.8X9 z / h g 0 * V ).`.`._._._._._.`.h.I r u ~ / _ z 5 +Xo..                                                     ",
"                                                5 ,X( &.8X5 z z t g y 2 s.v.(.^.(.(.(.(.(.(.)._.].^.r z ~ / ~ / 4 +X` .                                                   ",
"                                              $ F.w.~ eXw z h t h t 2 s.x.s.Y M._.(.(.(.(.(.(.(.).`.k.4 ^ ~ ~ ~ / 5 +Xi                                                   ",
"                                            O O.#Xu wX~ 0 h t t h < C d.f.l.)._.(.(.(.(.(.(.(._.`._._.m 4 p T / ~ T S |.3                                                 ",
"                                            9 <XG  X{.2 z u h h 4 b d.d./.`.(.(.(.(.(.(.(.(._.B.I j.`.l.- P F i w i * ~ R #                                               ",
"                                          # C.G.W :X4 8 8 8 1 < ; s.d.d.^.(._._._._.(.(.(.(.^.] < O j.].P P Y P X.q P j.P h.+                                             ",
"                                          4 +.j r N b N N N B C d.d.d.f.(._.N.r m B._.(._.`.z._ Q + m (.M.% 2.2.* = ..H l.V.r H - *                                       ",
"                                        2 b B Z Z V B n b b N V s.d.d.f.(.^.) | o m (._.V.M.(.r + H J.'.(.q v E L -.M V.M.^.i j.V.X.$                                     ",
"                                  < N C C C J K v E 2.4.2.v 1 % ; d.x.d./.(.w 4 % - ).(.H H V.).h.-XuXuXN.7 F : <.K.c M B.M.v t.M.m                                       ",
"                                    b d.3.q.y.u.p.5.5.5.5.5.4.% - b n V C g.h.Y P X.`.V.(._.)._.].'.-X..q n.H.: L.Q.E.L % & k b.;                                         ",
"                                      , c.I.u.y.i.p.p.t.t.q.g L ;.-.=.L f d G G G F H J X.M.`.).k.M ; K T.9XR.6 P.5XQ.9XP.{ 6 #                                           ",
"                                      = ; Z m.i.u.u.u.u.[.4.A K.>.1.1.1.K.W.Q.Q.E.T.{ X q H m 5 7 3.Y.0X5XW.5XG 9.9XW.Q.W.6XH.%                                           ",
"                                      $ +.! , C c.m.n.n.b.r -.<.;.<.:.;.L.5XQ.Q.Q.0X{ K 6.{ 8.I.Q.9X5XT.R.Q.9X6.k 5XQ.Q.R.W.I.%                                           ",
"                                      $ F.C.~ ~ a b b b ; = ;.<.1.>.<.<.U.5XQ.Q.Q.R.k W.9X9X9X5XQ.Q.5XR.E.Q.9X@.X 9.9X!.W.W.8.@                                           ",
"                                      * oX7..X}.= t 8 8 < d A d L :.<.<.U.5XQ.W.0X6.3.9XW.Q.Q.Q.Q.6XR.Q.Q.Y.W.d : =.~.Y.T.8.D l                                           ",
"                                      * D e Q | 4 h t 6 ,.0.0.0.K f <.<.L.5XW.5XT.d R.!.Q.Q.Q.Q.Q.Q.T.E.Q.Q.K c :.7 :.c 2 < o.'                                           ",
"                                      3  .9 ` 2 8 g 2 A d $ > - 0.A =.1.1.Q.5X5Xk 9.9XQ.Q.6X5X5X5X5X9X9X6X{ f 1.1.d =.=.# 3 3 3 2 l w                                     ",
"                                      ( yX7.} #.# 3 * > ; z.s., : L f >.;.L.R.A { 5XE.E.E.R.R.T.P.I.n.8.: . f s : 3 5 p ) #.Z.+X;XfX%.X                                   ",
"                                    @ w.D.G.F *.D oX! ; > b i G j e 9 6 6 6 3 % d 7 7 7 7 7 7 e i S Q ) #.r..X X+X>XwXrXsXfXfXrX%XhX%.X                                   ",
"                                    2 +.w.C.G *.! ,XF. .+.! #X,X1X#X4X=X=X=X=X=X@X@X%X%X=X=X7X*X&X*X&X+X|.Z.%.>XfXpXpXrXrXeXaX%X+XhX|                                     ",
"                                    $ O.w.G. .&.! D.,X<X,X<X#X#X#X,XiXpXaXaXaXaXaXaXaXaXaXfX;Xl l i i Q W #.$.` aXeXrXrXrXrXeXZ.eXiXu                                     ",
"                                    $  .S.2X[ &.! D.#XoX#X#X#X#X#X3XiXeXrXrXrXrXrXrXrXrXeXdX{.[ XX8X+XqX*XwX*XQ iXeXrXiXpXdXrXqXgX#.@                                     ",
"                                      ( 2X,X( %./ #X<X<X<X<X,X,X#X3XpXrXrXrXrXrXrXrXrXrXrXaX;Xe } o.} ' } } '  XhXdXaXrX7X%XZ.%.W #                                       ",
"                                      9 #X<XD Z.3 D ! [ +.w.C.A.F.$XqXrXiXaXaXaXaXsXsXaXaXaXaX;X+X+X%X%X+X|.{.r.o.~ S u w u ) 9 .                                         ",
"                                        ! [ W ' @ # e ! F j e 9 9 9 u u i l l S D W D D S l l S l l i u i l W ` #.r. X*X8XpXaXi                                           ",
"                                          # - $ 2 e.<X2X#XoX,X#XG.D.S.C.C.C.A.{.}.{.{.}. X+X+X%X*X>X7XwXrXaXsXfXfXfXdXaXrXfX#..                                           ",
"                                              # [ 2X#X#XG.D.#X#X#X1X,X,XtXsXdXdXdXdXdXdXdXdXsXaXaXaXpXaXqXrXpXrXeXrXrXeXaX&X*                                             ",
"                                              @ [ 2X#X#XoXF.#X#X#X#X#X#XwXrXrXrXrXrXrXrXrXrXrXrXrXrXiX7X>X+X7XqXrXrXrXiXrXp                                               ",
"                                                * C.<X#X#XS.#X#X#X#X#X#X4XiXrXrXrXrXrXrXrXrXrXrXrXrXpX+X&.o.}.eXrXrXrXdX) o                                               ",
"                                                  3 D.,X#XD.G.#X#X#X#X#X#X7XpXrXrXrXrXrXrXrXrXrXrXrXqX;X&.| *.eXrXrXfXo.o                                                 ",
"                                                    6 D.<XoXS.#X#XoXD.#X#X#X7XpXrXrXrXrXrXrXrXrXrXrXiX;X X%.%XpXiXdX| o                                                   ",
"                                                      3 C.2XD.D.,XS.( oX,X#X#X7XiXiXrXrXrXrXrXrXrXrXrXiXaX8XqXdXqX/ o                                                     ",
"                                                        $  .#XD.oX,Xe.[ D.#X#X#X4XeXiXiXrXrXrXrXrXrXrXrXqXaXfX+X9 o                                                       ",
"                                                          @ e 7.S.,X2Xe.A.#X#X#X#X$X7XrXiXiXiXrXrXrXrXaXfX>X' #                                                           ",
"                                                              # w [ A.<X2X<X,X#X#X#XOX$X3X8XeXpXsXfXaX&X| - o                                                             ",
"                                                                  # * j  .w.F.oX1X,X<X<X,X,X$XoXC.o.l * .                                                                 ",
"                                                                        O # - 9 j F G G G k e 3 # o                                                                       ",
"                                                                                                                                                                          ",
"                                                                                                                                                                          ",
"                                                                                                                                                                          ",
"                                                                                                                                                                          ",
"                                                                                                                                                                          ",
"                                                                                                                                                                          ",
"                                                                                                                                                                          ",
"                                                                                                                                                                          ",
"                                                                                                                                                                          ",
"                                                                                                                                                                          "
};
