/* XPM */
static char *_d932a786f314db1a4911d226a6b30dcdKd7LTTpNMH8Ce8I[] = {
/* columns rows colors chars-per-pixel */
"64 64 198 2 ",
"   c None",
".  c #373D44",
"X  c #403F48",
"o  c #424648",
"O  c #484750",
"+  c #575351",
"@  c #50575E",
"#  c #595D5F",
"$  c #5D5F5C",
"%  c #775E41",
"&  c #565D64",
"*  c #5E646B",
"=  c #5D6673",
"-  c #636064",
";  c #6B6665",
":  c #676B6E",
">  c #6D6B6F",
",  c #6E706D",
"<  c #646B72",
"1  c #6D7174",
"2  c #767270",
"3  c #737074",
"4  c #757774",
"5  c #717678",
"6  c #787579",
"7  c #767A7D",
"8  c #7B7D7A",
"9  c #BB6600",
"0  c #A67332",
"q  c #B57A34",
"w  c #D97F12",
"e  c #C57B25",
"r  c #85766C",
"t  c #807B7A",
"y  c #D7831F",
"u  c #DA801F",
"i  c #DE8926",
"p  c #D38628",
"a  c #DA8C2F",
"s  c #CD893F",
"d  c #D58833",
"f  c #D78A35",
"g  c #D38D3C",
"h  c #DF973E",
"j  c #E29336",
"k  c #A78255",
"l  c #A18359",
"z  c #BC8E56",
"x  c #96846F",
"c  c #AD8860",
"v  c #BC9567",
"b  c #B5926F",
"n  c #A99479",
"m  c #CC8D41",
"M  c #C8914F",
"N  c #D39447",
"B  c #D7984A",
"V  c #D59650",
"C  c #D19957",
"Z  c #DA9B54",
"A  c #DE9E57",
"S  c #D59D5A",
"D  c #D19A5E",
"F  c #C89A67",
"G  c #DEA562",
"H  c #D8A164",
"J  c #D2A269",
"K  c #D9A86F",
"L  c #CFA87F",
"P  c #DDAE7A",
"I  c #6C788A",
"U  c #797D80",
"Y  c #7E7C80",
"T  c #787E86",
"R  c #7E8285",
"E  c #818380",
"W  c #848185",
"Q  c #898483",
"!  c #828689",
"~  c #868A8D",
"^  c #8E8988",
"/  c #8E908D",
"(  c #95918F",
")  c #858B93",
"_  c #8C9193",
"`  c #939195",
"'  c #989A97",
"]  c #919598",
"[  c #979B9D",
"{  c #9B999D",
"}  c #A0988B",
"|  c #A69C89",
" . c #AE9D8D",
".. c #9DA09D",
"X. c #ADA69F",
"o. c #B6A494",
"O. c #B6AB99",
"+. c #9099A6",
"@. c #A6A1A0",
"#. c #ACA7A6",
"$. c #A7A9A6",
"%. c #A1A5A8",
"&. c #AAACA9",
"*. c #ADABAF",
"=. c #AFB2AE",
"-. c #B7B0A9",
";. c #A7AEB6",
":. c #ABAFB2",
">. c #AEB3B5",
",. c #BCB7B6",
"<. c #B6B8B5",
"1. c #B6B3B8",
"2. c #B2B7B9",
"3. c #B0B7BF",
"4. c #B6BBBE",
"5. c #BABDB9",
"6. c #BCB9BE",
"7. c #CCAE88",
"8. c #D3AD83",
"9. c #DDB585",
"0. c #DCB58B",
"q. c #C2AF98",
"w. c #CFBA9E",
"e. c #D1B393",
"r. c #D9BA94",
"t. c #D6BF9D",
"y. c #C6B4A3",
"u. c #C1B1A6",
"i. c #CCB8A2",
"p. c #CFBDAC",
"a. c #D2BFA8",
"s. c #C0BBBA",
"d. c #D2C7B4",
"f. c #DCC8B1",
"g. c #D3C9BC",
"h. c #DECBBA",
"j. c #DDD2BF",
"k. c #E1C3A2",
"l. c #B6BDC5",
"z. c #C2BFC3",
"x. c #BBC0C2",
"c. c #BEC5CD",
"v. c #C7C2C1",
"b. c #C3C5C2",
"n. c #C4C1C6",
"m. c #C0C4C7",
"M. c #C4C9CB",
"N. c #CEC9C8",
"B. c #CDCFCC",
"V. c #D5CEC7",
"C. c #D2CDCB",
"Z. c #DCD2C5",
"A. c #C2C9D1",
"S. c #C7CED6",
"D. c #C9CED1",
"F. c #CDD2D4",
"G. c #CBD2DA",
"H. c #D7D2D1",
"J. c #D2D4D1",
"K. c #D0D5D7",
"L. c #DCD7D6",
"P. c #D4D9DC",
"I. c #D9DBD8",
"U. c #E6D3C2",
"Y. c #EBD7C0",
"T. c #E1D8CB",
"R. c #E6DDD0",
"E. c #E0DBD9",
"W. c #DFE2DE",
"Q. c #E5E0DF",
"!. c #E9E1DA",
"~. c #EBE4DC",
"^. c #D2D9E2",
"/. c #D6DDE6",
"(. c #D8DDE0",
"). c #DADFE2",
"_. c #DEE3E5",
"`. c #DAE1EA",
"'. c #E4E6E3",
"]. c #E8E3E2",
"[. c #E7EAE6",
"{. c #EEE8E7",
"}. c #E3E7EA",
"|. c #E7EBEE",
" X c #EBEEEA",
".X c #F3EEED",
"XX c #EFF1EE",
"oX c #E2E9F2",
"OX c #EDF2F4",
"+X c #EAF1FA",
"@X c #F2F4F1",
"#X c #F9F4F2",
"$X c #FCF7F6",
"%X c #F7FAF6",
"&X c #F1F5F8",
"*X c #F3F8FB",
"=X c #FAFCF9",
"-X c #FFFCFA",
/* pixels */
"                                                                                                                                ",
"                                                                                                                                ",
"                                                                                                                                ",
"                                                                                                                                ",
"                                                                                                                                ",
"                                                                                                                                ",
"                                                                                                                                ",
"                                                                                                                                ",
"                                                                                                                                ",
"                                                                                                                                ",
"                                                                                                                                ",
"                                                                                                                                ",
"                                                                                                                                ",
"                                                                                                                                ",
"                                                                                                                                ",
"                                                                                                                                ",
"                                                                                                                                ",
"                                                                                                                                ",
"                                                                            ..%.:   &                                           ",
"                                                                          K.P.OX5.& * R ' %.                                    ",
"                                                                        m.}._.}.W.5.7 & R ~ 7                                   ",
"                                                                    +.M.K.P.P._.}.1...! @ 1 <                                   ",
"                                                                  = } 7.s.x.D.K.%.> # ..=.~ & @                                 ",
"                                                                    r q q.z.5.x.[ o O 7 <.I.5.5                                 ",
"                                                                    $ % x s.l.D.4., X - x.}.|.I.                                ",
"                                                                    : , 2 c ,.M.M.>.[ >.4.K._.}.                                ",
"                                                      x c.L z  .>._ Y _ W ; &.P.M.x.M.2.1 [ D.K.4.                              ",
"                                                    e F J F o.P.F.M.>.^ _ _ ! ` *.4.D.%.. _ m.F.U                               ",
"                                                F.N.H.g.u.b L 8.8.L y.l.%.' _ ~ 5 ..x.x.>.2.G.2.                                ",
"                                              J.'.&X_.a.J D P P 0.H V L s.2.' ] _ U R :.:.o.O.>.                                ",
"                                            b.{.OX!.t.d p C !.XX&X!.0.g M ,.m.%.[ ] ~ 1 Q 0 l                                   ",
"                                          b.'.&X Xf.s a.P J g.K.W.Q.0.V d L D.M.>.{ _ 5 : +                                     ",
"                                          8..X$X].K 7.H.OX#./ ` ' v.T.R.a.p p./.D.x...Y                                         ",
"                                        k A ~.OXU.g | ..../ E 8 7 ] W.J.,.m 7.(.P.F.M.*.                                        ",
"                                        L A g.K.9.V x 1 6 8 8 > 4 ~ J.I.;.J J H.I._.P.A.                                        ",
"                                        f.i C.P.r.V ' > t > > > 4 ! W.}.b.0.V W.E.F._.C.M                                       ",
"                                      S.0.D g.F.k.j u.-.-.3.W 3 ~ x.T.T.+XH H H.B.:.^.J z                                       ",
"                                      u.K H }.XXh.f e.J G d.B.b.I. Xk.H J N 8.`.B.S.i.H 7.I                                     ",
"                                      z g Z.&X%X~.Z y u H Z.}.5...<.v.D p w j.W.F.N.V K -.                                      ",
"                                      M e.}. X@X*Xf.w f i.(.).&.%.[ (.L p 0.!.|.>.i.N h.G.                                      ",
"                                      n P.W.'.[.XX!.P j F d.Z.|.V.d.L a K T.=X@XOXf.Z E.&.                                      ",
"                                      @.B.I.W.Q.[.OX!.P M 9 V Z S f j K !.@X%X@X&Xr.Z s.[                                       ",
"                                      ( 6.N.H.L.W.].|.+Xh.t.P H H k.T.{.=X=X%X%X%Xf.V s.)                                       ",
"                                        *.s.v.C.L.I.W.[.OX XoXQ..X.X=X=X-X=X=X%X%X!.B t.                                        ",
"                                        { &.<.z.N.J.I.].b.J.[.'. X&X%X=X=X=X=X=X=X#X0.M                                         ",
"                                          / $.>.6.b.C.C.,.=.I.J.<.Q.@X%X=X=X=X=X%X=XY.k                                         ",
"                                            { %.*.1.z.N.N.C.H.I.b.[.XXOX%X%X=X=X=X=XI.|                                         ",
"                                            t / ..$.*.1.n.D.n.(.W.'.[. X@X@X%X=X%X[.%.                                          ",
"                                              U ^ n n v L F q.p.K.(.W.].{.XX@X@XW.                                              ",
"                                                l e a h h h i Z D d.^.W.].{.[.B.                                                ",
"                                                    n  .#. .o.J j N e.P.J.b.v.                                                  ",
"                                                      T   ) ( s.y.d M v                                                         ",
"                                                                                                                                ",
"                                                                                                                                ",
"                                                                                                                                ",
"                                                                                                                                ",
"                                                                                                                                ",
"                                                                                                                                ",
"                                                                                                                                ",
"                                                                                                                                ",
"                                                                                                                                ",
"                                                                                                                                ",
"                                                                                                                                ",
"                                                                                                                                "
};
