/* XPM */
static char *b16c5fc929d448dee79abaa036ce0cc7cmCNjnCP0lDwEZv6[] = {
/* columns rows colors chars-per-pixel */
"64 64 186 2 ",
"   c None",
".  c #39363A",
"X  c #373D44",
"o  c #474D54",
"O  c #494F56",
"+  c #575351",
"@  c #50575E",
"#  c #5D5F5C",
"$  c #775E41",
"%  c #565D64",
"&  c #5E646B",
"*  c #636064",
"=  c #6B6665",
"-  c #676B6E",
";  c #6E706D",
":  c #646B72",
">  c #6D7174",
",  c #767270",
"<  c #737074",
"1  c #757774",
"2  c #717678",
"3  c #787579",
"4  c #767A7D",
"5  c #7B7D7A",
"6  c #916020",
"7  c #916738",
"8  c #A67332",
"9  c #B57A34",
"0  c #C7760B",
"q  c #CE7C21",
"w  c #85766C",
"e  c #847C70",
"r  c #D88414",
"t  c #D7831F",
"y  c #DE8318",
"u  c #DE8926",
"i  c #D38628",
"p  c #DA8C2F",
"a  c #CD893F",
"s  c #D58833",
"d  c #D78A35",
"f  c #D38D3C",
"g  c #DF973E",
"h  c #E29336",
"j  c #A78255",
"k  c #BC8E56",
"l  c #9A866B",
"z  c #AD8860",
"x  c #BC9567",
"c  c #B5926F",
"v  c #A99479",
"b  c #CA8C46",
"n  c #C8914F",
"m  c #D39447",
"M  c #D7984A",
"N  c #D59650",
"B  c #D19957",
"V  c #DA9B54",
"C  c #DE9E57",
"Z  c #D59D5A",
"A  c #D19A5E",
"S  c #C89A67",
"D  c #DEA562",
"F  c #D8A164",
"G  c #D2A269",
"H  c #D9A86F",
"J  c #CFA87F",
"K  c #DDAE7A",
"L  c #E0AE75",
"P  c #797D80",
"I  c #7E7C80",
"U  c #7E8285",
"Y  c #818380",
"T  c #848185",
"R  c #828689",
"E  c #868A8D",
"W  c #8E8988",
"Q  c #8E908D",
"!  c #95918F",
"~  c #858B93",
"^  c #8C9193",
"/  c #939195",
"(  c #989A97",
")  c #919598",
"_  c #979B9D",
"`  c #9B999D",
"'  c #AE9D8D",
"]  c #9DA09D",
"[  c #ADA69F",
"{  c #B6A494",
"}  c #B6AB99",
"|  c #9BA2AA",
" . c #A6A1A0",
".. c #ACA7A6",
"X. c #A7A9A6",
"o. c #A1A5A8",
"O. c #A9A6AB",
"+. c #A5A9AC",
"@. c #AAACA9",
"#. c #ADABAF",
"$. c #AFB2AE",
"%. c #B7B0A9",
"&. c #ABAFB2",
"*. c #AEB3B5",
"=. c #BCB7B6",
"-. c #B6B8B5",
";. c #B6B3B8",
":. c #B2B7B9",
">. c #B6BBBE",
",. c #BABDB9",
"<. c #BCB9BE",
"1. c #D3AD83",
"2. c #DDB585",
"3. c #DCB58B",
"4. c #C2AF98",
"5. c #CFBA9E",
"6. c #D1B393",
"7. c #D9BA94",
"8. c #D6BF9D",
"9. c #C6B4A3",
"0. c #C1B1A6",
"q. c #CCB8A2",
"w. c #CFBDAC",
"e. c #D2BFA8",
"r. c #C0BBBA",
"t. c #D2C7B4",
"y. c #DCC8B1",
"u. c #D3C9BC",
"i. c #DECBBA",
"p. c #E1C3A2",
"a. c #B6BDC5",
"s. c #C2BFC3",
"d. c #BBC0C2",
"f. c #BEC5CD",
"g. c #C7C2C1",
"h. c #C3C5C2",
"j. c #C4C1C6",
"k. c #C0C4C7",
"l. c #C4C9CB",
"z. c #CEC9C8",
"x. c #CDCFCC",
"c. c #D5CEC7",
"v. c #D2CDCB",
"b. c #DCD2C5",
"n. c #DAD3CB",
"m. c #C2C9D1",
"M. c #C9CED1",
"N. c #CDD2D4",
"B. c #CBD2DA",
"V. c #D7D2D1",
"C. c #D2D4D1",
"Z. c #D0D5D7",
"A. c #DCD7D6",
"S. c #D4D9DC",
"D. c #D9DBD8",
"F. c #E6D3C2",
"G. c #E1D8CB",
"H. c #E1D9D2",
"J. c #E6DDD0",
"K. c #E0DBD9",
"L. c #DFE2DE",
"P. c #E5E0DF",
"I. c #E9E1DA",
"U. c #EBE4DC",
"Y. c #D2D9E2",
"T. c #D6DDE6",
"R. c #D8DDE0",
"E. c #DADFE2",
"W. c #DEE3E5",
"Q. c #E4E6E3",
"!. c #E8E3E2",
"~. c #E7EAE6",
"^. c #EEE8E7",
"/. c #E3E7EA",
"(. c #E7EBEE",
"). c #EBEEEA",
"_. c #F3EEED",
"`. c #EFF1EE",
"'. c #EDF2F4",
"]. c #EAF1FA",
"[. c #F2F4F1",
"{. c #FCF7F6",
"}. c #F7FAF6",
"|. c #F1F5F8",
" X c #FAFCF9",
".X c #FFFCFA",
/* pixels */
"                                                                                                                                ",
"                                                                                                                                ",
"                                                                                                                                ",
"                                                                                                                                ",
"                                                                                                                                ",
"                                                                                                                                ",
"                                                                                                                                ",
"                                                                                                                                ",
"                                                                                                                                ",
"                                                                                                                                ",
"                                                                                                                                ",
"                                                                                                                                ",
"                                                                                                                                ",
"                                                                                                                                ",
"                                                                                                                                ",
"                                                                                                                                ",
"                                                                                                                                ",
"                                                                                                                                ",
"                                      _ 4 : @ & *.                                                                              ",
"                                    ] ] ~ : & ,.`./.N.>.E                                                                       ",
"                                    R P & 4 h.L./.S.S.S.*.                                                                      ",
"                                  % & O R #.@.l.S.:.o.k.m.'                                                                     ",
"                                  @ R @.U R - E :.> o *.4.j $                                                                   ",
"                                4 d.Z.j.3 X . # k.E ^ a.O.7 +                                                                   ",
"                                M.(./.E.3 * - o.k.M.d.d.^ >                                                                     ",
"                                N./.W.S.d.:.l.d.>.d.:.R U 4 I       6                                                           ",
"                                N.W.Z.M.d.l.l.M.>._ 2 R ( W ( :.k.6.k ' ~                                                       ",
"                                >.S.M.>.k.>.l.k./ U ^ ) ` *.l.N.E.S.f K r.k.!                                                   ",
"                                  M.g.9.=.' v I E ^ ) o.<.M.S.S.W.B.w.N H ).,.E U                                               ",
"                                  %.x 8 = , w ^ ) ` :.k.S.S.S.E.C.X.B.6.N 2.e.d.=.                                              ",
"                                  E l $ # U ) ^ o.a.r.t.w.w.u.E.L.M.Z.<.q.F d F H G 6                                           ",
"                                    + O * T W *.r.J n a n a A H e.E.L.h.L.!.F.7.K p.5.[                                         ",
"                                        - ( k.9.f n s p.u.} 3.F m 7.L.|.`.|.}.[.[. X}.h.                                        ",
"                                        *.m.e.A L p.i U.l.a.s.W.B t 8.!. X[.}.}.}. X X).                                        ",
"                                      7 { T.1.C I.^.n.D.P.`.'.G.m i m b.}.}.}. X X X.X[.Q.                                      ",
"                                      j S e.H i.[.L.@.Q o.d.!.3.g A f 7.|.}. X X X X X}.x.                                      ",
"                                      4.G v N U.).$.l P 5 Y N.G.r.V.f V ^. X.X X}.}.}.}.P.                                      ",
"                                      w.x c G 8.i._ U : ; 3 -.[._ s.1.C U. X X X}.}.[._.D.                                      ",
"                                      x 6.q.q f S ( P P - , ,.,.E E.F p U. X}.}.[.'.^.^.D.                                      ",
"                                      b V.u.f 1.`.+.U , = ] S.-.O.c.F F ^..X[.[.).~.!.P.x.                                      ",
"                                      %./.H.A e.N.] 3 P *.<.K.Q.(.y.u p._.~.l./.~.L.S.S.9.                                      ",
"                                      l.(.!.8.a 9.5 > Y 9.D 8.D.u.S u b.(.D.%.D.!.Y.u.F n                                       ",
"                                        Q.'.G.1.n c / | 8.p F 9.S b y.~.~.A.C.E.S.8.M h q                                       ",
"                                        C.[.'.Q.H N S 1.5.i r y N 6.P.(.=.x.V.z.9.Z h 6.                                        ",
"                                        a.).{.'.C.y.Z C m h F K y.].`.V.-.=.Z.=.S N 4.r.                                        ",
"                                          v.I.!.x.Z.n.I.I.J.I.P.]./.L.P.z.v.h.J p J !                                           ",
"                                          9 A H 6.C.M.[.}.|.`.(.!.L.D.V.z.r.%.b A ..                                            ",
"                                            j B F A 8. X`.`.Q.L.D.V.x.h.,.#.' h S R                                             ",
"                                                n.D M i.).Q.P.A.V.z.j.;.O. .c a v                                               ",
"                                                B.r.H m D.S.D.x.u.,.*.O.] Q l 0                                                 ",
"                                                    k n 4.N.z.s.*.+.] ` T P                                                     ",
"                                                        e ` ` &.` Y W                                                           ",
"                                                                                                                                ",
"                                                                                                                                ",
"                                                                                                                                ",
"                                                                                                                                ",
"                                                                                                                                ",
"                                                                                                                                ",
"                                                                                                                                ",
"                                                                                                                                ",
"                                                                                                                                ",
"                                                                                                                                ",
"                                                                                                                                ",
"                                                                                                                                "
};
